<mxfile host="app.diagrams.net" modified="2024-06-17T15:15:18.528Z" agent="Mozilla/5.0 (Windows NT 10.0; Win64; x64) AppleWebKit/537.36 (KHTML, like Gecko) Chrome/125.0.0.0 Safari/537.36" etag="mVc5oUKKLm3DjXRAz3Ua" version="24.5.4" type="github">
  <diagram name="Page-1" id="eWNnL2zTmYQC0VW30nhH">
    <mxGraphModel dx="1050" dy="557" grid="1" gridSize="10" guides="1" tooltips="1" connect="1" arrows="1" fold="1" page="1" pageScale="1" pageWidth="850" pageHeight="1100" math="0" shadow="0">
      <root>
        <mxCell id="0" />
        <mxCell id="1" parent="0" />
        <mxCell id="eeU7S_-60lfEHyKscsOe-13" value="" style="shape=ext;double=1;rounded=0;whiteSpace=wrap;html=1;" vertex="1" parent="1">
          <mxGeometry x="20" y="110" width="810" height="450" as="geometry" />
        </mxCell>
        <mxCell id="eeU7S_-60lfEHyKscsOe-14" value="" style="rounded=0;whiteSpace=wrap;html=1;direction=south;" vertex="1" parent="1">
          <mxGeometry x="60" y="140" width="200" height="390" as="geometry" />
        </mxCell>
        <mxCell id="eeU7S_-60lfEHyKscsOe-15" value="" style="rounded=0;whiteSpace=wrap;html=1;direction=south;" vertex="1" parent="1">
          <mxGeometry x="300" y="140" width="270" height="390" as="geometry" />
        </mxCell>
        <mxCell id="eeU7S_-60lfEHyKscsOe-16" value="" style="rounded=0;whiteSpace=wrap;html=1;direction=south;" vertex="1" parent="1">
          <mxGeometry x="610" y="140" width="190" height="390" as="geometry" />
        </mxCell>
        <mxCell id="eeU7S_-60lfEHyKscsOe-17" value="" style="shape=image;verticalLabelPosition=bottom;labelBackgroundColor=default;verticalAlign=top;aspect=fixed;imageAspect=0;image=data:image/png,iVBORw0KGgoAAAANSUhEUgAAApwAAAF8CAIAAADthfztAAAgAElEQVR4AeydB1gU1/6wYze9/nPTkxvpvbOLRpPc3OSmsbQtLLC0pYN0pINSREARUXqR3nu3d429Uyx0qSoi0tl834Kh7A64Cwvbfj7zPM4OZ2bOeU9558ycOfPa3/APCAABIAAEgAAQ4AkCr/FEKiARQAAIAAEgAASAwN8gdSgEQAAIAAEgAAR4hABInUcyEpIBBIAAEAACQACkDmUACAABIAAEgACPEACp80hGQjKAABAAAkAACIDUoQwAASAABIAAEOARAiB1HslISAYQAAJAAAgAAZA6lAEgAASAABAAAjxCAKTOIxkJyQACQAAIAAEgAFKHMgAEgAAQAAJAgEcIgNR5JCMhGUAACAABIAAEQOpQBoAAEAACQAAI8AgBkDqPZCQkAwgAASAABIAASB3KABAAAkAACAABHiEAUueRjIRkAAEgAASAABAAqUMZAAJAAAgAASDAIwRA6jySkZAMIAAEgAAQAAIgdSgDQAAIAAEgAAR4hABInUcyEpIBBIAAEAACQACkDmUACAABIAAEgACPEACp80hGQjKAABAAAkAACIDUoQwAASAABIAAEOARAiB1HslISAYQAAJAAAgAAZA6lAEgAASAABAAAjxCAKTOIxkJyQACQAAIAAEgAFKHMgAEgAAQAAJAgEcIgNR5JCMhGUAACAABIAAEQOpQBoAAEAACQAAI8AgBkDqPZCQkAwgAASAABIAASB3KABAAAkAACAABHiEAUueRjIRkAAEgAASAABAAqUMZAAJAAAgAASDAIwRA6jySkZAMIAAEgAAQAAIgdSgDQAAIAAEgAAR4hABInUcyEpIBBIAAEAACQACkDmUACLCYAIVCGR0b465lbGyMxRTgcEAACLCDAEidHdThnLxLYGxsrLev735DI3ctjzo6xykU3s0WSBkQ4BcCIHV+yWlI5/IQeN7/4tSFixau3ty17E9KHR4ZoYDXl6eUwFmAwJIRAKkvGVo4MF8S6O3rK6w8pKKK5a7FcXvg0PAwSJ0vyywkmqcIgNR5KjshMWwnAFJnexZABIAAPxMAqfNz7kPaWU8ApM56pnBEIAAEGCYAUmcYFQQEAgwQAKkzAAmCAAEgsFQEQOpLRRaOy58EQOr8me+QaiDAIQRA6hySERANHiEAUueRjIRkAAHuJABS5858g1hzKoF5pI7W1EERTZT1rdm2kKzQOAMVNQL9yHwY/c6pBQriBQSYIwBSZ44XhAYC8xOYR+rKBtZyHnul9+Swa5EJTle09qJ6ne6NO5D6/NkKfwUC3EIApM4tOQXx5A4C80hd0cZLMu6w8JFH7FpEKh7K+sWidM1A6txRmCCWQIB5AiB15pnBHkBgbgLzSF3B1lci6YTQqSfsWoQPt8kGJqL0zEHqc2cg/AUIcDcBkDp35x/EntMIgNQ5LUcgPkCArwiA1PkquyGxS04ApL7kiOEEQAAIzE0ApD43G/gLEGCeAEideWawBxAAAiwjAFJnGUo4EBD4+++/QepQDIAAEGAjAZA6G+HDqXmQAEidBzMVkgQEuIcASJ178gpiyg0EQOrckEsQRyDAswRA6jybtZAwthAAqbMFO5wUCACBSQIgdSgJQICVBEDqrKQJxwICQIBJAiB1JoFBcCAwLwGQ+rx44I9AAAgsLQGQ+tLyhaPzGwGQOr/lOKQXCHAUAZA6R2UHRIbrCYDUuT4LIQFAgJsJgNS5Ofcg7pxHAKTOeXkCMQICfEQApM5HmQ1JXQYCIPVlgAynAAJAYC4CIPW5yMB2ILAQAiD1hVCDfYAAEGARAZA6i0DCYYDABAGQOhQEIAAE2EgApM5G+HBqHiQAUufBTIUkAQHuIQBS5568gphyAwGQOjfkEsQRCPAsAZA6z2YtJIwtBEDqbMEOJwUCQGCSAEgdSgIQYCUBkDoracKxgAAQYJIASJ1JYBAcCMxLAKQ+Lx74IxAAAktLAKS+tHzh6PxGAKTObzkO6QUCHEUApM5R2QGR4XoCIHWuz0JIABDgZgIgdW7OPYg75xEAqXNenkCMgAAfEQCp81FmQ1KXgQBIfRkgwymAABCYiwBIfS4ysB0ILIQASH0h1GAfIAAEWEQApM4ikHAYIDBBAKQOBQEIAAE2EgCpsxE+nJoHCYDUeTBTIUlAgHsIgNS5J68gptxAAKTODbkEcQQCPEsApM6zWQsJYwsBkDpbsMNJgQAQmCQAUoeSAARYSQCkzkqacCwgAASYJABSZxIYBAcC8xIAqc+LB/4IBIDA0hIAqS8tXzg6vxEAqfNbjkN6gQBHEQCpc1R2QGS4ngBIneuzEBIABLiZAEidm3MP4s55BEDqnJcnECMgwEcEQOp8lNmQ1GUgAFJfBshwCiAABOYiAFKfiwxsBwILIQBSXwg12AcIAAEWEQCpswgkHAYITBAAqUNBAAJAgI0EQOpshA+n5kECIHUezFRIEhDgHgIgde7JK4gpNxAAqXNDLkEcgQDPEgCp82zWsjBhDc0tWUWlLv5BsLySgL2Pv56No4oqln5RsPWVSDohdOoJuxbhw22ygYkoPXP6uDluDxwaHqZQKCwsNnCoBROgTPxb8O6wIz8TAKnzc+4zmvYbd2r8wvbTmwC2MEVA2dhe1i9eIvYQuxbJyDIFxwAUwYg+2iB1RivDEoejUCgjo6NnL105ce7Cw+aWJT4bHJ4HCYDUeTBTWZ4kkDq9BRewBY0lKRvYKJq7sm0xdUERTdDq2vSRB6mzvNYs7IDDIyM3a2rdd4Zae/gmZObcb2waGRmBOygLg8mfe4HU+TPfmUs1SJ3egjy2BaTOXJVYmtAjo6PNj9pdA4N/1aHeTflT39R/74EHTc0Dg0Pj4/BkZGmg89xRQeo8l6VLkCCQOo8pnD45IPUlqDdMH7KhuXV3TMKvOkabMDgVVewmNfzPBH1rD5+zl668GBhg+nCwA18SAKnzZbYzmWiQOr0FeWwLSJ3JOsH64A3NLYlZuWqG5pvU8FOla5Ma7r8EkpW7b0FFdWdPD+vPCkfkOQIgdZ7L0iVIEEh9qpHl1RWQ+hLUGyYO2dHVnVFYom/rhFjAftDSMXX2SMrOq3vwcHRsjInjQlD+IwBS5788Zz7F80hdWVNXEWeggDdi16KIM0Bjpns2k20iWlMXhTdEEclsW7SNVdS1VSZuok410yh1bSUsiV2gFPBGinhDlAYRPTtWk9EDqTNfLVizB3W4+8hIxdETFq7eU0WFfmUTBoc1td4Xf/DG3Zq+5/3wiJ019HnxKCB1XsxVVqdpHqlLGtkJ2u7Y4BjErkXQzk9ZU4emEVQ2slNw2invtY9ti9tulLaJihphZsTktY3FzF3ZBWqDY5Cgvb8MyVJZgzgzVpPrIHVWVxpGjzc2NtbU+sjRN/B7TYR8ocmp77WIDr4B5y5fpXodJhVglDF/hQOp81d+Lyy180j9S6/9b8QdXZ1xkV3L6wnH5bXJNL1POc994ukXhA+1smsRLa5VsnRHa+nNbJTFzVw+Cs1kF6jVGRfXHzwt4BiogDecGSuQ+sIqBav2et7fHxabqGZkvhHpDgpNTm3E4L7XIhrYueSVVfb29bEqDnAcXiIAUuel3FyqtMwj9c99Y9Ymn3kt7xa7lrWp5+WIJrRS940Uy73OronbhE49EalqUrT2opG6mIXr+3vz2QXqtbxbqzMufeu8SwEmn1mqisL0cXv7+k5duES0stvCQDd9SvA/YnUN7V3iM3LaO7vGx8eZPivswNMEQOo8nb0sShxIndnrA5A6i4oeLx9mdHTsTt09j6DdP2J1p4TN4MoWTaKOtUN0SkZjS+vwyAgvY4K0MUkApM4kML4MDlIHqfNlwV/aRHd0dWcWlf6XoD/zHbYpqSsRTRUMbFFaJJrhllMBNqnh/ySZJGXl3WtoHBoeXtq4wtG5hwBInXvyin0xBamD1NlX+njzzBQK5fjZC9YevlOSnrmC1iBKuu0TDiuRtfJWxhmiZ7y5PjPYRgzuPzjdhMych80to6PwqhtvFhVmUwVSZ5YYP4YHqYPU+bHcL2Wan/Y+i07J+M8cN96lbP1FYk8IlbUJ5daKBKQp6lnNdPnM9Y0Y3G96xuEJBxtaWpcyvnBsriEAUuearGJjREHqIHU2Fj+ePPWR02dtPLcjjHjH4JS19MT2FAoVNQhX9whVdgrn1omEl8lZequoUueOpV82YnBapta7o+Ohv86TRYXZRIHUmSXGj+FB6iB1fiz3S5NmCoXy9Flf8IHYP0hkekOjNXUlt4UJZ9wQquoWru6ZXASLGkT3V8vaBaCpcwwgqH2TGl7TxCo8/mBT26PhYRg3tzQ5xyVHBalzSUaxNZogdZA6WwsgT518eGTk3KWrxo6u9N10tBpBSc9K8OB5obK2KaO/9HpZm3DCGVlbP2WkKRRVVLEbMbjf9YzT8oub2x6NwVSyPFVkmEsMSJ05XvwZGqQOUufPks/yVFO76b3Ptu+J+F0PoZuujDeSdgwWLm6kMfpLr1d2bcitk9m6QxlviDgkfpMa/g+SScmho4+f9sIn2Fmed9xyQJA6t+QUO+MJUgeps7P88dC5h4dH6h481DSxQnyNTd5024bkS0IVHYhSn3zELpB3T9plD9XrSM/XN6nhDexcSg8fGx4Z5SFskBQmCIDUmYDFt0FB6iB1vi38rE14e2dXWn7xz9oG9EpWxhtKu4ULlrYKz3iaTm93oaou4bRrUp6RSgRj+oOoqGL/g9N12B5w+PRZCmujDkfjEgIgdS7JKLZGE6QOUmdrAeSRk1MolFu1ddYevoiTwspaeopEVtNbnH6LYGWXcPJFKY/9c01N85uesWfwnht3a0dgsjkeKTtMJAOkzgQsvg0KUgep823hZ2HCn794UXn85M/a+pvUaEewo9W1Jb1jBAof0isccQvV6ymXZex3zuV1VQPT4MiY1vaOkVG4D8/CPOSCQ4HUuSCT2B5FkDpIne2FkAciUPfgYVhsIuI9c0UdM4nd+ULV06+xIbp85kahyk6BnBo5c3eU5qyPAU4efyMG96uOYemhoz1PnsKgOR4oPIwnAaTOOCv+DQlSB6nzb+lnXcoPnzpj4uyBKHUJjwNCaVdnOpuRdaGKjg3p1+Ut3BEHw29WJxCt7C9cvQ6dddblIRccCaTOBZnE9iiC1EHqbC+E3B6B4ZGRlLzC/+kgj1oXCysSLGlmROSzw3QLlreL7KuQs0C4Vpj8+HrQ/phbNXXcTg/izzgBkDrjrPg3JEgdpM6/pZ9FKW951L7rQMwmDN3TdDWCgoGtaMJZ6rD2f6aQY2pFsOCBeFCWgoEt4j0ALVPrpOy8zu4eFqUDDsPpBEDqnJ5DnBA/kDpInRPKIVfH4fRflxx8A+i9i9LUE/OOEcm+w5TIaQOnX5fwiUNp6SHeh7dy96k6fmpkdBQernN1EWIw8iB1BkHxdTCQOkidrysAKxKfkldItLKnl7oy3lAg5sSC7r2/nBmeOilNdbdI8kUZcw+0ujb9KX7E6roGBLd3do2Pj7MiKXAMjiYAUufo7OGQyIHUQeocUhS5NBoUCsUvbP9PeBK9cVEEskDWHeoragu69z61l2BZm0DiBRSeTP/Fl40YHN58a1J2Xv+LAS4FCNFmnABInXFW/BsSpA5S59/Sv+iUj42NtbZ32Hn70U8Ni9IiyVr5CDP8evqUwulXhKq6BYsaxfxTFPUs6S8dfsTqkp3c6h48HBoeXnSC4AAcTQCkztHZwyGRA6mD1DmkKHJjNCY+y3bFyMGV3rWKelaigenCpa30kl7IlspOwczbsrYBKE1dmnNtxOB+1jZIysp71NHJjQwhzowTAKkzzop/Q4LUQer8W/oXnfIXAwPZxWUEC4TR6fImLhuSzgvP/QUXZtUuVNUtFpInb+xII3UVVexmdQLJ1unspSuDQ0OLThMcgHMJgNQ5N284J2YgdZA655RGrotJ3/P+kKg4VQNTetHKWXr9O//+gl9mQ1T+hqIGSd84tDqR/nQqqtio5PSG5hauYwgRZpwASJ1xVvwbEqQOUuff0r/olD999myr147/EvTpLStvs12gfM4PrSI6+9Ubq7pFo4/JWPvQn05FFatj7VB6+Bh8wG3Rucq5BwCpc27ecE7MQOogdc4pjdwVk/Hx8baOTrzZ1u/UCTSWVcYayLiGC837odVXKxxpzLxQwQPxXdn0w+BVVLE/YnVDouIaWlq5CyPElnECIHXGWfFvSJA6SJ1/S//iUj44NHSrpu4PEpnG6CqqWHkDW7GgzIVpe/69hCq7RJL+kp3jtXUzF8/Sw8cWlyzYm3MJgNQ5N284J2YgdZA655RG7opJb1/f8XMXftUxope6jJW3UNSR+fW88L8WPBDZU4TCGtCf9zc946D90c9fvBinwG147ipNDMUWpM4QJj4PBFIHqfN5FVhw8rsfPymoqP6FiCBXKYcggeSLC9c20o33qaMJVXUJ5tYp6Vmj1Whv+6uoYk1dPG7crR0eGVlwumBHjiUAUufYrOGgiIHUQeocVBy5KiqPOjqTsvN+1kYYJSe1be+GrMVN+T6v14VLW0T9UxR1Eeai0SBbHjiY1tffz1UsIbIMEQCpM4SJzwOB1EHqfF4FFpz8xpbWsNjE/+D06G+DS3pGbmDFXHJTvXPalcrODek35M3d6E/9g5aOkYNrY2srfGp9wTnLsTuC1Dk2azgoYiB1kDoHFUeuisq9hw0+u8N/xNJO8aaiipXyjRMoY9Fccshd9m6B8nZpt33KONqPuG/E4H7VNSo7cqznyVOuwgmRfTUBkPqrGUEIkDpIHWrBwgjcrb9n7xvwvRbCVDDSOxIFWDeXHG03/R/Ni+4tlTNDmKH2R6yuV3BY/cOGhaUL9uJYAiB1js0aDooYSB2kzkHFkauicqu2znyb5xZNRKknLf7jbHO5fGr7hpxaKbcI+nfWN6nhMYZmF65eh++xclWBenVkQeqvZgQhQOogdagFCyNws6bW2MltiwbCZ86l/ZKWYuaZKZ1PrghWdEoFpKI0dOifrG9Sw+eVVz3pfbawpMFenEkApM6Z+cJZsQKpg9Q5q0RyT2xu3K01tN+GIHUMTsY/mUbAS/RTNOqojKUXvdRVVLG7ImPv1N/jHpwQ01cTAKm/mhGEAKmD1KEWLIzA9dt39W2dN9PNEYtWJ8gEpC6RxWkOK5h5W8w3AVHqJs7uh0+dWVjSYC/OJABS58x84axYgdRB6pxVIrknNtdu39W1cUSSurZ0YBqNfZfop0Bpq2h4GVoNT+/1/+kYpuQWwsdYuadAvTqmIPVXM4IQIHWQOtSChRG4eusO0cp+swb9tG44Gb9luv0uVN0jFndKCW+ogsHRe31nRFRTW9vCUgd7cSABkDoHZgrHRQmkDlLnuELJJRGaq6euooqV8UsW+ufFsyXqo08dViT9uqTDLjTScDlbL79jZ85zCU6I5qsJgNRfzWg5Q9Q9eJhRWLpzfzRHLS7+u/BmW+mv8VVUsZ/7xqxNPvNa3i12LWtTz8sRTdCzuyByvpFiudeZNTELw4tUNSlae6G1Zs0jJmbh+v7efHaBei3v1uqMS98671IgIHxcRM3IPCA8kqNK3c790ekFxZ3dPVz9ztXNmlpTZ3eEgXJUqR9chtHvk14Xyr8vHJyLwiLMVqttYZecU7CcrRyca0kJgNSXFC/TBz976YqL/65fiAYctfyEJyG2Siqq2A2OOz8KyXg3ophdy0ehWQp09xUVHAOkIgrFU8+ya5GMP6JEdkBrznqPSMrI9gvvA+wC9W5E8Qd7ckWsPBWRWvbN6gSOKnKTkXHcHviwqXl0dIzpisQxO9ytv2/n7T/H5DNJglVdU53pJV0RLG0VSDiLwiNcz/1CNNgZETU2NkaBj7ZxTLFZTERA6ouhx/p9T56/aOO5HbFPzJkbZfStRC3chG282bWIWrora9DO7KGsb6Vo46XgtJNti70fimCkMvsDWYp4A0myPbtACdt4i1h5yOmYotQR3pnmzNJl4ep9v6FxdIyLpV734KFH0O4ftGZd3k3Sps4oV9mxpC6fOrhQZadg9h1lbROEWWgwOAffgJ4nTxd2R2R8nDIyOjo0PDw4ODQ4ODQ0PDw8MjI2Ng6XCKzXA2NHBKkzxmm5QnGd1DlTBhAr3iDAA1J/0NgcuC/yPzjkud83LO3c7z1TUheu7hEpfKCkvxXxS6wmzh7Xbt0ZQfoSK4VCGR8fn9T2wODg8/7+3r6+J729j5/29jx52vPkSUdXd0NzS829+zfu1t68W3O3/v69hqam1raOru6eJ08eP3n6+Gnv095nz/qeP3/xYmBwcGh4eGR0dHwcrL9UUgGpLxXZhR0XpM4bNoJUsIQAD0i9qbUtLC7pJzyJHoikZ9S3S/qVttmj8ESKmyRddisRjOljomPtUFx9eHBwiL7VGh4Z6X785G7dveNnL+SUVhw4mOazO9zKw9fAbhvR0l6TbPWnvumf+iZ/kMi/61GXP0hk6k99kz/1TTXIlgQLWwM7Z3vfgIB9UbFpWYWV1af/unS3/l734yfDw/A1d3reLNgCUmcBRBYeAqRO3+LAFr4lwANSb2vviEvP/i8BQepSbuEbcu7O7Ewv7XpZm3BwjoK+NX1xUje22J+U+ry/n0Kh9Pb11T14ePzchYzC0t3R8e5BobZeO8y3eRnYuWhb2mmQLX/TM/4JT/pek7hZnbBp9gBVmiNvUsN9p47/Xov4s7bBH/ommiZWOlb2hvYu5ts87bz9fHeHRyWnlxw6cvnGrfaurqHhYRY2pPx8KJA6Z+U+SJ2mXYCf/EyAB6Te2d2dU1L+s7YBfT5KOQULpF5ZWpHP7KxXtG+IPSlPdqKPyS9Eg61eOyqPn8wrr4pKTt8RFmHrtUPPxvF3PTLip2joj7CALT/idDXIlibO7q4BwaHR8UnZeaWHjl64er21vWNwCAS/cDGB1BfObin2nEfqKHVtZQ0dZU02LRo6KOp4NLrJK9S10Zo6aE1dNi70U2qg1QgoDSLbWGnqoDR00Bi6CbwweLQGkY2gqKdWI9DgQmNw1KLFrnKlqaOsoYOii9WkJHhA6k96e6uOn/wfkfaL5tT31G22C8UcXzapC1V2fptxU87cnV7Am9UJv+uRzV291I0tvkca00e/C8u3/IQnaVvauQYGJ2blHj1z/lZNXcuj9uf9/eMwJp9J04DUmQS2xMHnkbqMnoUE2VHCxIktiyTZQdrAmn6UDYpkoWTmomjpzq5FycwFTTf6XYFgJG2wlS2gJk8qaWyvpKVH43UUzkDJyJZdoKjnNXdV1jFDq896WUBZQ0dWz5ydrMgOckRT1OxY8YzUn/f3n7989Tc9hCfZ8kYO4sE5yyf1qq5vCx7Iz/FlF5ZLejEH/IVoYOnmHZ2Sce7S1c7unuf9L0ZGR2E4PYPyAakzCGqZgs0j9X/tTF6bcnZN2gW2LOsOnv4gLI/+FWeZoINieTdEqprYtYgW3FLWNaPpfQo4BL4XUcIWUJMnfT3huATZUXn2BF6K1p6S0ZXsAiVS1SRaUie3PRqlYzazwZXWt/4kIImNrNYfPPWF9wG52bHiGakPDQ/fqb/3B4k8k/nkurIWSXZb2DJKvfvb0lZ5a1/6mHDalk0Y3BZN4n8JpD/1TUxdPOLSs2/X1g0jDc5fpnaZq04DUues7JpH6h+FZq3Ivsau+chWZV5550CZIo720aD07iyR8vssnIuN2UOJVDYo65nTSP1bl5A3Yw6xi9VrebfWpF0QN3VR1pz1IpOCra9E0glmE8jC8MKH22QDE1F65jMbcSnDrR8FZ7CR1arMK5/6xcnqzorVZAx54Pb7+Ph4a0eHBtlyE933VNAYvJytv0DFMr2qLlzdI1DZKW/DTdNgbMTg/oPT1TK1tnL3CY6MrTx2svvxY66et2AZfANSXwbITJwCpM6sw0DqjBMDqTNRFVkX9PHTXhNnjx+xs67wJq9a5K28vy1sEFqueeWEqrsVbP1proBnXuExuI7G4JU1dRSx+vLaZDldCxk9q5cLyVqGZC2rZyWnYy5PNFXAGylpkVgy2dF36oTfdI0t3bzD4w9WHT91v7FpAOkFPNZlGhcfCaTOWZkHUmdcUZMhQeqMEwOps6W29/b1eQWHIT9WN922IeWS8DJ21uUdd9EMqphP5NRBlERFrIE80VSGZC1laC9BdhYzcxex8hG0C/zWKfRrt31fesV87hP/cvFN+Nw34XOf+C89o79yP/DvbXs3OOwSsvETtfASN3WVNHaU1t8qq2uhQDBWpo7ZpBtJqoqdLzKq2I0Y3BYNbbKTe0RiyonzfzW2tA4Pj8CzdppSDVKnAcLmnyB1xhUFUmeWFUidLdX7+YsXkcnpmmQremMp6NsIh+QKl7Ut25N1GfcIZTzCUPypuKEx+Im3IXSVsPryBLKUoZ2QzY6v3A98vDPzvfCKN2JPr0m5tiK79rWcesaXlVk165Iuvn3g8Ech+Z9tT/rWKVTc1FVOx0IRZ6CkpUd9VWSO1x+mYkWzsgmD0zKx2huXVP+g4Vnfc67+OgDLyyRIneVIF3VAkDqzooKeOuPEQOqLqpwL3XlwcKi4+oiOtQONmVRUsSgtkqylt0hR47JJXWp7vJIOwvCFybihMTh5AlnU3ONr94iPQvLfjDm19uDl1anXV6XfXJlxe2Xm3RVZNSuy6xjX+VTIFdm1K7JqVmbeWZV+a3XajTUp19YnnH93X9WnOw4K2gXKkKyVNRAeT9ATm9rynTrhZ4K+jpVDck7Bw6Zm6K9PFU+Q+hQKjlgBqTOuqMmQIHXGiYHU2VLJR0ZHb9XWmbl4TglpagWNwSvpWgrl1AhVLtPn2iT9kxX1aO4Z4JS0SJLGjt86hXzin/p+WNlbUcfXJ5xfk3ptZebd13IWovApl8+zsiK7dlX6rXUHL70Re+qd/Yc+Cs770jNKxNJbXtuEwcfw1LvxmkScmY1rQHBWcVlzW6jS5IsAACAASURBVPsYN3/7h1WFE6TOKpKsOQ5InXFFgdSZZQVSZ00tZfIoFArlSe8zZ/+gzeqEKZ1PraDwRoLxZ4RKW5ensy4RkKpAmpgpFjPhciMHAbvAL7xjPwrJfyvqGPXWelbNPCZeuj+tyri9PuH8e3vLP/FP/cYlTNTcQ07HjH5ijCluM1d+wpNMnN0zCktfDAwwmTk8GBykzlmZClJnVlTQU2ecGEidXbWdQqEER8b+qovwOXOUFknU76BwTu0yST0wVZbsJK9rIUF23uCw618B6W/GnFyZcXvpbL2AI689eOn9sJKvPCJFLbxkSDZKWP1XjqpTMzIPjz/4vL+fXVnMOecFqXNOXlBjAlJnXFGTIUHqjBMDqbOxtmcWlZK2Isy7jlYjKBjaiiWeE67qXgavi4Xkirru/co34e3Io+zqlDOo+RVZtWuTr/xfULaIlY880ZRmKqeZPfVNanhLN+9bNXUjo6NszGIOOTVInUMy4mU0QOqMKwqkziwrkDoba/uFq9ed/YNmqmhqHa1GEImoEFiWMfACxY3/l1OzNvM2hxt9UvwrsutWZtxem3zl/b1lAg5Bc/XXMYZm4fEHYSrZyeINUmdjNUc4NUidWVFBT51xYiB1hCq3XJs6e3rCYhO/m+PlbHHvWKGMm0vdUxeq6v5XScvr+Q9WMPNCGoMd6yUMll33ZszJb7btnWvaHGe/oPOXry5XTnL6eUDqnJVDIHXGFTUZEqTOODGQOhtr+8joaHZxGcZw1sT7U511ObKTWESF0FLegReq6v6ivP3NgoaVufeWUMBLcLmwIrv2g9BCMVPXKVwzV/4gkRMyc5709rIxcznq1CB1jsoOeKb+hHFFgdSZZQVSZ29tP/3XJVtvv5lCmlpHq2tL+sYJFC/VC+tCVd3fVHS+U9i4ituM/lpO/brEv77ZFk7zJYUpdI47As9BN31GyQapz4DBAavQU2dWVNBTZ5wYSJ29VbyhuSU6JWMTBjclpJkrMrb+QglnlugO/L8rOz8sbuG6PvprOfUrsms/DsyQNHKcyWpyfSMG9yNWN6e0vPvxE/bmLEedHaTOUdkBPXXoqTNNAKTOWXV47tgMDw+fOHfhF6IBoteVsQYyrnsFl2AWmg2VXf8qaeXGPvqK7Np1SZdErH1Rs79iPCn1H7R0XAND7tTdGx8fn5s63/0FpM5ZWQ49dcYVNRkSeuqME4OeOntrO4VCuVt/z9kv6ActHfp+pwoGL2fhuSH9hnBlJwv764LVPZ+Utq3Pf8hdz9EnY7s67cbXbhFyRDP6IXKb1Qk4M5vTf11+1vecvdnKaWcHqXNWjoDUGVcUSJ1ZViB1ttf2rp7H+eVV/yMif1JFScdc3CdeqKRZqLqHVV7/vKz9rcLGFVz4KH1NyrWPQvJlSNaIs8aqG1vsS0h+/LQXuuk0pRqkTgOEzT9B6syKCnrqjBMDqbO5ev/99/DwyL2GRgM7Z8TOOlqNoEiyFkq+JFT+aPFSF6ru+aayg0sHx63MuPPuvipRC09Eo/+EJ7n476q5/wBmm6Ev0iB1eibs3AJSZ1xRkyFB6owTA6mzs27/c+7n/f0HklI1yJYId+Cp323TE/WNF86+K1y92AnmNlR2vV/UtDrvPtfdeF+RXftG7Omv3SJUVBEGFW5Sw5Od3PLLq/8hCv/PIgBSn4WD7T9A6owrCqTOLCuQOtsr+N9//z0yOlr/4KGlm/dGxGHwGBwKqy8SeVigvH0xnfUNlV0fl7Zxo9Ffy6lfm3z5K48oBTzCVPkqqtg/SOTEzNynvc84ITc5MA4gdc7KFJA6s6KCnjrjxEDqnFDbKRTK4NBQRGKyurEFYmddBYOTcg4VSTq/YKlvqOr6pLRtXd5DLps5Lqf+tey61Wk3v/CKkSHZoDF4Gj7Ub61qaO+NS6q9/wAepc9VmEHqc5Fhz3aQOuOKmgwJUmecGEidPbUa6awXrl7bFrBr0xyzxirqmEkEpAoWPFiA1wWruj8te/RmQQMX3nWvW516/RP/VClDO8RH6d9rEh13BF66fnNgYBAJKmyjEgCpc1Y5AKkzriiQOrOsQOqcU9uf9/en5RepGZnTdEanfspZeIjsqxSsYO71NqGq7i/L298ubOS6PvqK7Nq1By9/FJwrrb8VpUGc4jC18iNW19De5diZc0+fwY33+QoySH0+Osv/N5A6s6KCnjrjxEDqy1+j5znj9Tt3d4Ttn6uzrqKKk7fw+ja7Rojh19aFqnu+reh8u7CR+2aOy65bk3L1/4KyZXUtED/F9p06Qc/GMbOo9MXAwDxI4U/QU+e4MgBSZ1xRkyFB6owTA6lzVIV/MTBw5NTZ30nkubyujDeScgwWLGoQYmwk/IbK7ne4c7j76tTrn25PktGzRDS6iioWb741Lj27f2BgnELhqEzkwMhAT52zMgWkzriiQOrMsgKpc1RtH6dQmtsexaZn/aytP3WTeeYKWo2gpGMmsjtfuOD+Kx+uT87uvibvPnfdeF+RXbs+8a8vPaOkDWwRn6OrqGLVjS2iktMbW9ooYHQGSjBInQFIyxgEpM6sqKCnzjgxkPoyVmWGTjU4NFRz/4Gt146fCXN4XV1bztRFdH+VUFHDPF7/trLz45LWtXlc9qH0Vem33j5w5BvXfTJ6Vig17ZkXNJPrm9Twf+qbhMcfhAneGSpPE4FA6oyzWo6QIHXGFTUZEqTOODGQ+nLUYSbP0f9iICk7D2tqTa+0qS3S9oEiMceFypCnmROo6v6ktO11rprdfUV23dqDl9/fU7LBMVhJi0Q/tbuKKnazOgFjaLZzf1TNvfswcxzjxQqkzjir5QgJUmdcUSB1ZlmB1JejDjN8jvHx8cGhoY6u7vyKKh0r+ymFI65IbQvbkHmLvrMuVN3zObe9wLYy8+7ag5c/8U+TNEb4oOpk8jep4TGGZjvCIjq6u8fGxhiGCgHhlTYOKwMgdWZFBT11xomB1Dmquvc8eXr41FmH7YG/65E3axAQXT61Uc7MTSS8jEbqQtU9X1V0vFnYwEXD3Vdm3n03olpoq7+8NhmtNmeqMYZmIZGxHV3do6NgdOaKLfTUmeO11KFB6owrajIkSJ1xYiD1pa6/jBx/bGys5VF7SfURv7D9JFunn7WRP6/+UucYHFpTV9I1XCTqqEhe/UypC1V3f1PZ8VZh46pc7pjdfWXmnbeiT3zpGSVBdlbEGcw10F1FFUuwsI1Ozah/0AB9dEZKFE0YkDoNEDb/BKkzriiQOrOsQOrsrd7P+/tr7z8orj4SEhVn4uz+qw7y3OZTvXOUlp6ciYvUjkTh5EuCpa2zjF7V/XVFx3tFTau44JuqdSsz774VfeJfAWmCdoGyOubz6HyLhraxo2tybkH9w0Yw+sKKK0h9YdyWai+QOrOigp4648RA6ktVb+c+LoVCGR0d7ep5fKf+XuWxk6FR8URLu1febFfB4JSIZjJ2gWJ7igRKmoSqZn2xjfpN1YrOD4tbONzoK7JrV6fdeCP21Iehhf923iNDsqafzn3qCmYjBveztoH5Ns/8iqqOrm54e23uMvWKv4DUXwFomf8MUmdcUZMhQeqMEwOpL2d1HhsbGxgcevrs2YOm5pyScluvHb/pvqJrPmE4HEpDR5loKuEdgzgyTri6Z0Nl14fFLas5+K77iqyaVem31if+9cGekg0OQYpYg3l0rqKK3aSG/1nbwM7H/8xfl4eGh5czm3jvXCB1zspTkDrjigKpM8sKpL5stZ1CnVimveLYCb+9+3FmNv/TMfxei4j8rVVV7FRvVUUVi9LQkXDeLRx/Wqi4URhpgljBqu4PipvXcPBX0ldk1bwZfeIL71hxk22KOENlDR004kdmZyT8T33TsNjE2vsPhoaHoY++yFIKUl8kQBbvDlJnVlTQU2ecGEidxdV19uEoFEpv3/O79fdLDx/bHZNg7+OvZ+P4B4n8nfqcY7xn6lyZYCxjGyASXi6Sfl2otIXmlvvkA3WBqq7/K2lZl8+Jk8ysSbn2zv7Dn/ilbHDYJWHiIqdjrqypOzOBiOtbNIkWrt55ZZUPmpoHh4ZmE4VfCyEAUl8ItaXbB6TOuKImQ4LUGScGUmd5zR0fH+973n+/senspSv55VVRyek+oXtNnT1+J5E3M+ZyFQxOWYskY7Ndwj9FNO6UQGmL8Own6FPj4zZUdv2rtG19/gMOeYGN+sg85dobsafe21v2iX/a124RwtbbpQ3s5ppMhkbqmzW0tUysd4RFHD51trOnB76PzqrCCVJnFUnWHAekzriiQOrMsgKpL76WjlMowyMjvc/62to7au8/vHD1ekn1kYjEFAffQE2y5fdaCN8MpZHZ9E8MXhlnIG/iIuO8Wyj2hEBx45S/6Vc2VHV9WvZoff5D9k3tXrcy886a1Ovrki6+EXv67QNH3t9T+ol/6jfb9opYeskRzeaauX06vf/cb9+Iwf1BIlu4ekenZt6th9niFl8qZx0BpD4LB9t/gNSZFRX01BknBlJfQAUfHx8fGRkZHBzqf/Gi91lfZ3dP7f2HR06fTczK3RYQrGVixeDd9ZluQ2PwKC09JR0zGftAgfjTgmWPEG+2T6ldqKr707JHrxc8fC2nnpFlRVbtysw7E8vdFVk1K7JqV2TXvpZdR13mOkJ23YrsOmrIrJqVmXep+2bcXpV+a3XazdWp19ekXFt78PJbUcc+DM3/3Cd+g8MuSWNHao9cFTczXa9c34TBbdHU/l3XePuefecvX4UxcQsokK/cBaT+SkTLGgCkzriiJkOC1BknBlJntjKPj493P3l6/U5N2eFjkclpboEhJFunP/VNf9Ux+llb/wctnYUZXVHHXNTvoODBv6ifaalon+t++5TUP5uYCJbxPvrrcWc+DCn4MKTgvb3lb0cefT3uzNqki6tTrq1Ou7ky8y6d2utWZt1dnXZjbfKV1xPOvxV94t2I6g/2lHwclPW5T/y/t4UJbfUTN9kmp2OhgDdSwuoraelRx76pERAnbJ/f6/8l6Ft5+B45dbato3N4ZATGxDFbIBkJD1JnhNLyhQGpM64okDqzrEDqM2syhUIZGR0dGBrq7etr7+y619B49fadE+culBw6kpZfFHkwLWh/tEfQbjsff1MXD10bBw1jy/8RDbdoMjSIHdFtynhDGWsf0ZA8sbhTwjk1QmVtQtU9U+ZGXBGq7v6ivP2twgbGX0lflX7zs+1JUga20vpbpQztJY0dJUxcxE1dxczcxMzdRS08RS28RC1nLxaeYubu4mZuEibbJMhOkkYOUgZ2MiRrOR1zBW2yIs5AWVN3/nfSENM7c+PveuRt/rtySivu1NX3PuuDyV9nFkXWroPUZ/EcHBo6fOpMcfWRoqrDbFlCouK0Le1mVoap9c92xL4Ze+iN+KNsWd6Krv54V5oSljQVn8kV2R0x4qlnRQtus2sRTz+PIprQdBqEbLd/uDubLaAmT/rOgXJJIztljVlPWBUtXKXCC9gFSrTgtlj2ZTnPcCquf55uqqhiZfQsP/eNZiOrt6KrvnYLk58dq8kY4s23xmdkF1RUs6QyFlYeyi2tyCouSysoTs7Jj8/IiUnNjExO25eQHBod77f3gNvOEFtvPxNndx1rB3VjC6rCNbQZeQ9tJk/6dbSatryxg7RzqERgmmjMcYHCh0KVXYgKp9koWNX9ZXnH29SJYO/Neduc7nb62weOCNn4MXtjnD7aLNmyRZOobmTu7BeUmJV7/sq1rp7Hsxpc+LEEBEDq01ApFErP4ydW7j44Mxt2LX+QTH7Q0kGsTiJWHt+47v7aLYwty7+3hQrZbkfNtpSKKlbRykPOO0LWP55di5zPATT1UmPWsz1pQxtBez+2gJo86bcuwfTfq0DpWSg4BrILFPW826MUzVwmcE2/G62IMxS1dGcjq39vCxU3daa/XlRRxf6gpaNmZI41tWZJfcSaWqsamP6qa/QzQZ+5EW0zroEQ6ybiRpQWSZFkJW/uJme3UywkVzD9mmDZrKleaRRO83PC6O3vFDUxN9Y9u+6z7UnS+jaIUVq2jZPTw2lb2jn4BhxISr1w5drTZ31ws31aNku5BlKfpjs2NtbU+uhPfdNlK/pwIiAABHiKAAaHVtdGYfVRBGNZK2+RoMwN6dcFKjpphP3Kn0LV3V+Vd7xb1MR4B30iZN3KjDtCW/2UNZA7BkuNeiN1HBzxZ239P/TIjtsDs0vKHzQ1g8unHbMsayD1acyDQ0N36u79QZp1c3KpqwEcHwgAAZ4hoIzVl7H0EtpdKJh+XbjggXBZK+KscK+U+lcVHe8UNTLXR8+pp37VdF+VpJEjzY2rZcP7q46RlbtPfEbOtdt3Ort7XgwMwLPzacEs1xpIfZr08xcvzl+59pue8bLVATgREAACXE0AjcEp4Y1kLL3EvWNEdxeIRh8VTbkkVPBAqKLjlWPaEdUuVN3zdQW1j76Aqd1Xp9382i1CXntZuyU/YnXxFlu3BQQnZOYcOX3udm19W0fHwOAgTCYzrZblXQOpT/N+2vvs8Kkzr/weIle3QRB5IAAEFkUAg0NpkeQNbGVsdki57pPyTZDclS0adVQo44ZAUaNgRQeiqhncKDjxQdWFGX1FVu36hPOSRo6opbz3PnmD/Q8SWc/G0d43YOf+6PiMnJJDRy5cvd7yqH1gEOZ5nRYKu9ZA6tPku3oeF1RU/0I0WFSdX9CYGjgjEAACnEgAg0Np6ikRTRUM7eTNXOUsveS37pB1CRMPyhSKPbkhp0aAgdfSmDL6+0XNTI11n3rovjr1+ge7i5SwCM3XZnXCzwT9P0gm/yMa/ojV3axOeOWQ/o0Y3GZ1wn9wer/qGKkamGqZWutYO5Cd3G08d3gE7d4Tk5BRWHL64uXGllYQ+bRCOGMNpD6dD486u5JzCn4m6CM3Lhgc9b2phSx4NAYWIAAEOICAGh6tRkCra08sRLQGEa2hg9LQQWnqobRI1AFuOENlvJEywViZYIzSJivrWMhbeIp7RQvuK/825fK3+fcFytuFql7xcjmDFp8ZbOIT6R0fFDczPsPMlM4nV96IPbPBIRhxiNyf+qbWHr4790W5BgSbu3oRLe3UDM3+1Df5g0T+g0T+XY/8m67xb3rGv+tRf/6pb/KnvinG0IxoZW/p5u0eFBocGRufkVN86OiVm7fbO7uGR0anG01Y4zwCIPXpPGlua9uflPoTnvZVbBVVLFpNW1lTV0lTj+kFZ6hEICtpm8ICBIAAewkoapsp6lnKGdvLmjjJmLtK2fhKbfWTst8p4bJHzCtaODBdaG+JQNRRgcTzAqnXBLLuCOXViRTcFylqEClpES5/JFTRIVTVtbAn5TP9jbj+TUXnewvto0+Oe38vvEJe2wRxihgX/6AzFy8/63ve+6zvSW9v95Mn7V3dDc0t9Q8b7tbdu3Gn5vKNW39du379Ts3de/fvNTQ2tz7q7O5+/OTpk97e3r6+vuf9/S8GBgeHRkZGxsbGYDT7tDM4cg2kPp0tDc0tuyJj/4PTo++pC1tv/zC08L295cwuX0YeEY49JR5/BhYgAATYTCDhjHjiObGDF8SS/xJNviiaekU07apo2jWRjJvCEwoXKnwoWNwkWNomWN4uWNk5/3zsiG5ewMaJPnrne0VNi/lE+rrEvz73iUOpadO3Xf/B6UWlZDx99my6pfv773EKZXRsbHh4ZHBoaHBw6MXAwPMXLwYHh4aGh8HcM0Fx4zpIfTrX7j1s9And+yMW4RvAX7nvX5l5h+Z+FyM/Pyxu+Xcl02+pLqBpgF2AABDgOgKCVd3fVHS8V7woo7+WU/9+WJmohRe90VVUsWQnt+qTp8cplOmWDtZ4mgBIfTp7a+8/cN4RRD+hG1oN/6VnNN1XEBj6XNJHJS3fMjYlJNe1RxBhIAAEFkNgcqz7B8ULHBk31alYlX7rc594BTzCu7gbVbHh8QfrHzZMN3OwxusEQOrTOXy7tt7SzXuL5qz5ulVUsSgNnc994qeqEFMrH5e0bqhiaJ7nxbQOsC8QAALcRWDiffTO94ubV+Qy1D2Yp9l5K/q4oK0/fTd9Iwb3/x8mHjp5ZmBwcLqZgzVeJwBSn87hG3dqDOyct2jQPpdSxBt+uuPgPJVqnj/9q7RVAKT+qk9RcVdzDLEFAosnQJ0FtrBpVe79eVoPBv/02fZEGaTJ3r/XJDpu33mn7h4MbZtu5flgDaQ+nclXbt7GmdnQfyBZjmj6SUAagxWMJtgnZW2CVd2LbwLgCEAACPAGgcl53d8pbFzAnHE0zcuK7Lo1Kdeok71rIowE+oVoUFBRDR9Gm27i+WMNpD6dzxev3fhdj0w/LYOMntXHOzNpqhODPz8teyRYDVJn/Xu9vNG+Qyr4jYAA9Wuq7Swx+mvUyd7vfLC7SMoA4WPNWzSJejaOdQ8eDo+MTLdxsMYHBEDq05l87vLVH7G69FKXMrT/KDiXQYvTBPus7JEQSB1uvwMBIFDdI1DV/UV5+wK+1ELTqrz8Se2mXxWw36mAN6R/oP6nvunOiOhnfc+nGzhY4w8CIPWX+UyhUE5duEhvdBVVrITJtg9DC5HrVc4rBrmA1PmtKwbpBQKIBIQmjP52YePCWhL6vVZm3n0z+oQc0ZR+wpmNGJyxo9uZi5eHhof5Q2SQymkCIPWXLMbGxo6fvUB/wauiihWz8Hw/rJS+UjGyBaSO2MDBRiDAbwQ+K3v0VkHDitx7jLQbjIRZl/jXF16xSloIk2X9hCf5hob3vxgYH4fX06dtxydrIPWXGT06Onbs7HlEqYtaeL0fVsZINaMPQ5U6DJSDW69AgI8JCFZ1f1r66M2ChoV9qYW+VXktp35Fdt07EdVShnZoNQJ9q0V2dCusPAQTzvCJxWmSCVJ/CWRkdPTomXP01UNFFStq4fUeSJ2PG2V+61NCellIYENl16elj95gqdFfy6lfl3TxM9/Eic+34GharS0a2kH7ox82NdO09fCTTwiA1F9m9PDIyNHTrJf6p/BKG1wNAAF+JfBtZdcnpW2v5z9c8LfXELvpr2XXvR9WKmrhSaPzyZ84M5v88qqRUfiWGp9InDaZ3CH1ZZg8YWRk5Mips4iVZDE99U9L4T11eJ8NCPAjAYHKro9LW9flP0AW86vG2M6z16r0W194xSA+Td+IwQWER964W0vb0rPv9zK03uxLHCeemQukPjY2Njg0tNQlY3h4+PCpMyyX+icgdX7tpbHwFi4ciusICFZ1fVjcsjbvAYv76BOXAu+FV4hYeatgaG+8b8TgvtfSKT9y/Hl/P4fYZnlabw5JLIdEgwuk3tnTc/jUmcaW1sGhoaWjNjw8cngJeuofl8Lc7/zYS+M6CUGEWUVAqLr735XUSd3X5j9YkcOyse5THfcVWTVfu0XIa5vS90C+1yQ6+AbcqqkbHx9fuqaS8SO3tXdcu333fmPT6NgY43tByEUS4AKpt7Z3pOUXHTiYdru2fum8PjQ8fOgk63vq/1fSCl9pY1VzyYLjVHWLFDeJZd0RLXzIgqPx4E2IbvGMG2K5tcIwY9KCMlewqvurio73Jz6OvhR99BVZNW9FHRczc6P/dPpGDO5XHcOCiurux08WaQWW7N7W3pFVXBaZnNbQ0jo6ClJnCVSGDsIFUu/o6s4oLNEwttyXkHzjbu0SfXFoaHi4+sRp+ovfRY5+h++pc5Q7RcrbJWJPyASkSEYeEilp4qi4sT8ylZ3imTdldyRKhxXBRc8CskNwYgrY94qaVrLuZfSpDvrkyuq0m196RskRzehbqh+xusaOrg3NLWyfF3ZsbOxRZ1dWcZmJs7udt9/TZ8+W+uEpQ67jm0BcIPXO7p7MotKftQ1+xOoG7ou6XVs/PDLC8lIycft9zp76gt9T/6C4+ZuKjgU0ELAL6wlUdorm1crbB6LwRgq2fhKxJ0TK26FL+pJzZYdobq2cewRK20TR0ktqf7UwlFtmOusTn2mhTurOwullaIy+Irt2fcJ5aQNblDrtlyRVVLGaJlaxaVnPX7xgr7xGx8a6eh6n5BUSLGxVVLF2Pn69fX3wxvxyZgoXSL2tvSMhM+e/BNJGDO5ngr6Db8C5y1dZfjU6Pj5+8vxF+uvfiZ6654Kl/l5R89csbhzh8zALfEgvln1XzjcWjTNUweDQmrpKFp6SUUcmvL7AA7L+soMZi7Dy7FVd4mlX5Z1DUVQ4eLSGjqK1r3jKJfA6g5CFqqmTur9Z2DCjj15Ho+TF/1yXdOnT7UlKWH36ZmoTBmfjsb2huYW9N7rHx8fvNzTujo7/Q99k8nOXNp7b2zu7xuCZ+jJanQukfr+xyS8s4j846rcFN6nhfyEamG/zzCgsaXnUzsLxIBQK5eylK1s0tOmnfxc33fbB7qKF1cl3Cpu+KmdNT1087Zp0aL70nkKRCuhfMqnhyi6J5ItyXlEoHTMVDH6yTURrkZRMt8mE5orm1Qnz8ax/IqWtktHH5J2CUQTjf+Dg0DhDRWtfyegjIsWNDIqNb4NtqOr6pPTR6wUvjb4q4/Zb0Se+cQ1/L7xiddqNhbUb9HutyK59N6JaysgBcQo5nLlNXHr20PAwy29hMi6jvufPj5057xUcpmZkvkntZS0zcXK/fOPWyAi8NM84yMWG5HSpj1MoV27eJm112qw+PRviZnUCydYpIjHlwtVrvc/6Fsvgn/0vXL3+s7bBJroXRSSNHD4KzqOvZoxseaug4Yuy9kW1d1XdIqWtEnEn5Tz2Kxk7Klp4Su6vEilt5WcPMcGzqku08KHkgUPyLntQuha0XRw1ghLZScbvoHjyRZGyNiYOy64uNWvPW9klllsnvadQYasfCm80Gw4OraGraO0jHZwjnn594jqSyQsp1kaVU4/278rOj0tbXy94ODnQfWXGnbcjj25wDJEnkEWsfD4OzFifcJ6RhuKVYdYnXPjCOxaloaOiSvsm2yY1vOeuPVdv3fmnJVvu/0dGR+sfNmQVldn7s5OYkwAAIABJREFU+P+POOuTcXjzrWn5xS8GBpY7Tnx8Pk6X+pPe3sLKQ99rEuk70L/qGLkHhVYcPdHQ3DIwOLj4xzYXr9/EGJpNXWNOtXEyJJuPg7JeWesQA7ye//CzskcLtoVISYtYxg2p/RUKtn7U+8aqWDSWpGjpKRl1lDqUqaprwUfm/R0rO0WLGsRTLkmH5iuae6C1SFMZSrOC0jGTcwuXiDkuml/PL0irukSKm8STL8nsTFcyckAjPaOdpKRssFXOO1oy7qRobu3E3Xh4+vPy4kaouvubyo6PSlrW/zO9zKqM228fOPLNtnDqtDAYHBqDlzRy+MI79u0DR9akXFuRVYPYRDCycUVW7YehBeKm22iK7uRPjKFZWn5R/ws2iHN4eKSzu+fitRvhCck4862Tt9xnRvIXooGzX1Bbewd7nwvwleI5Wurj4+N/Xb3uHhQ6s5TMXN+IwakZmYdExt6urXvS2zuyuAF0V2/dwSOVSzkds38FpDNS9+jDrM178Ekp813Aqm6RinbR4kaJuFNybvvQOP1ZE02oEZQN7aUiKqler+zkfT0z20ur7BQpaxXNqZHcX6lgsx1N7dxgX7GoEZSM7KV3ZYnm1VK77Dx9tUQtWgUPJKOPKtjsQGsQX0FGFauirq1saCvjnyKWcVOkuInaa+fjpxWT1U2ouvvbys73ippW592n1vrsukmjC9gHTczHPl3elDT1xE1cPtqVuz7hwsqM2yuya+lbiVduWZt89RvXfYjj4zZicF4hYVdu3l5mb42Njb0YGLjf2JRdXG5g6zzzTurMErURg/tdj3zszLmnvc+WOYZ8ezqOlnrPkydRyek/ExAGhkyVm01q+J/wJKyJVXj8wWu37y7m+8HXb9/VRyqdCnijT3ckv7LiIQZYlXvv49JW5rxb1S1S1iYRf1reda+yvg1aU3eW0Sf9pEZQ1rOQ9YkTz7jB3MGZFSTXha/sFMu+I7MrU9HKC403mpAW7e3KqcIza0WNgMIZKlq4S+0tEc2r51mqlZ0ScSflt4WhdMyZgoPG6ivr28h5RkrEn6E+/eG6gsG6CAtWdX9d0flWQeOq3PsTL6PXrUq/+a+ANEljR2UNXdrb4xgcSl1bCWsgYun98c7MdUkXERuK+Td+HJQtQXaeVVwn2oGNGNwPWJ3Sw8ee9T1fTodNvLTWmVlUau2x/Rei4WZ1Av2d1KnYbtEkmm/zunbrLgyXW5484lCpj1Moz54/T8rO07NxpH/IPVVcpla+UyeoGZlbuHqHRscfOX22o6t7ZGSEWYK3auvMtnlt0aTtuyhp6n3mmzB/rZvrryty6j8saRFirEERKX9EHQ0XkifvGKJk4oIikFXmvi+qokZA6Zgp2PpLh+T9c2uUf596ipS2iqVdkworlvPYr2jppUyymrjfzpjOp/rx1FHxesoGtvJOwdK7C8Syb/POjZCqbmrvPOoIlY+ZK3VMHNInO6cqFOIKWo2AIpoqmbjIOwXL7EyXiD8tQr1XxF/PgDZUdX1a9vKrayty6tcmX/lgd9EGx10yJBuaPjoNQyWsvgzJWsTS+yuPyPfCK9akXn8t59Uj5Fdk161JuSZoF6iERXh+9IOWjov/rjt19SwcMjx/s/mkt/fKzduJWXmOvgEEC9v/EhBiRZPwTWq4/xJIfnsPXL11e9niOX8qePuvnCj1kZGRtg7qZaChvcv3WrSKpSkxM39+p074Q9/ExnN7aHR8blnFX1evP+roZPzy8G79fTsff/ozotUIX3jFMFIDEdX+fnGzwDy3Kys7RYoaxVOvSB6olglMk3cOVTJ2RGtSn8nNTNpc62hNPSVjRzn3CKm9JWJpV0VKmvmoC1XRIVr4UDzlslREhYxfsrxTqJKpC3XAF2Po5kI6MXBBX4nsJO8WLh2aL5F4VjT/HrfanTrKskU87arUvgpZ3zgFK++F6Xw2q4lLH/2tCrZ+st4xUrsLJOJPi+bUCJfz/m35yWFxbxY0rMyuWZ9w4YPdxV95RIqZuSvhDNCMlTqUOlFOx0zE0vtr9/0f78x8J6J6XdLFeR63r8y483+7cqT1t9LeAFDFbsLgVPVNK46dePy0d0ktNTY21ve8/3ZdfcWxE9GpGW6BIQQL27nut88uKtOPIdSMzIP2R1+6fnORD0mXNKW8cXCOk/rzFy9q7t1PzS/CmW+l7zTPVWJotm/E4DTJlq6Bwck5+WcvXam9//BRZ9fz/v75BV/34KFH0O4ftBAewX7lETlPxUN0+dTGd4uavqmY/eS7slOkpFk0r048/ZpE3Cnp3YVy7hGKptvQWIMFCgmDVzJ2kPM4ILWvTDzlklhurUhZKw8+GK7qFil/JFrwQCzrlnjyRcnoY9IhufJu4UpkR7SWHk0ZYMFPNbyyroWCwy6ZXVkScSfFMm6IFjUI02QlY/dglvtKa8LlYjl3JZLOS4WXynkcUCI7UZ/jTN2TYNUK9TGQpYJdoIx/iuT+aomEs+Lp18Ry66gXl7w1LkGouodq9MKGd9JuvBlz8v2wki89Y8RNXRVxBgujitLQkSFZC271/9wn/oM9xW9FHlufcH5NyrWVWXenmo4VWdRLB1FLb8R303/RNrD38W9jpt/CuLQoFMrg0FDPkycPm5ov37hVcujI//9GO8nW6Sf8wiuaqoGpb2j4havXHj/thdngGc8LZkNykNSp14P9/Zeu39x1IOYHrM48D2kYr0XfqRN+1yO7BoYk5xScv3ytpe1R77O+5/0vhoaHR0fHxscpM3k9bGredSDmRyxC2/e1675VaTenKhtTK9S32krbRCraRcraqC4vahDLviMZc1wmME3BfidK11IFM/22HuNJQwyJxuorWrjLBqRIJJ0Tza8XKWkWKX9E7WXOc6uAM7U0GauqLuGKDpHyRyKlLSLFTaL59eIpF6X3UK+BlEy3Tb4OgMiBxRvVCMq65vIuu6UiKsUyb4sUNYqUtk6MF+OkO89V3cIVnS/LWP49ibjTsr7xSmSn+Z7gsErtk8dRIyiTbBTsd8oGpkrGHBfNrREtaqCWwDJq4Z+4S8+dI+eruoTL2wVLmj/OqX0v9vS/AtOFtvopEIwY7Jq/uihicEpaJDEzt6/dIj4Kzn0z9tTa5Cur026sSr+17uCl/wvOVUK6btiEwZFsnSqOnhgYZM1nrigUyvj4+MjIyMDg4LO+592Pn9yuqy+qOhy0P1rf1pn+naBXpwupdP2I1dW3c64+cbqtvWNoeBjuxs8UEKvWOUXqY2Njza2PolMyDOxcfsTqssTok8WOOpZES+dngv5vusbalnYu/rviM3NOnP/rQVPz8/5ZUyq2tnfEpmUhPiX61il0YSNcXsupfyO75vP06xLxZ6T3FMl5RSlaeaH0LNE4Q7QWiTow+59ZGhZWSWj3wuDQ6tpoLRKKQFYyc5PzjJTaVy6WeUtkEa/VLXcvc+oiY+IVc/GUS1IR5bJ+B+Udg5WMHVEEMhqrT+10qmsv8K4GUltDi5E+jBp1njU0zkDJYKu8faBMYJpE3CmRIg56+0CkpFks9Qq1jLmFK5k4o7TJ1LsXzD84fzUKejhTW9QIVEpaJBTeSFnXQtHGV847Wnp3vkTcabGcGq6cvK+qSySvXiT6qIBPvLilt5yOuZIWCaVBZJnRJ9FNDKZT1tRVwuorEIwljRw2OOz6bHvSF96x0oZ2iLPN/Fdbf/uefc/7+xf/Ku/ff/9NoVBGx8Y6ex5fuXkrt7QiIDzSyH7bn/omvxCpk3Mze6d9niK0EYPboqH9m66RT8je039d6mf3pLas8ihHHYf9Uu973n/jTk18Rra9b4Am2RLx7vc8pYSpP21WJ/xCNNAytTawc7F083b2C9qxJyIyOS2ruOzI6bOHTp6OSEz5CY8w9EPQNuDN6BNzd9DrVmbeWZN85fW4s29HHnlvb9lHwbmf+KV86Rm1wTFYzNpX1txNycRZ2WArimhKbWr/mdSMqcgzGZg6EyqKaKpsaKdo7q7gECTrHS0dkisZfUw87ZpowX1OamG7hSsnno5n3JRIPCd5oFo6OEfWO0beMVjR2kfJdJuyoZ2yrgUKb4RWZ2KABZO4ph/+zb8jWl0bhTNQ1rNUIjspWPvIue2TCcqUjDwinnpZNH8ZqVJfNG8Uy7gpEXdSek+hrE+Mgn2gopkrtYxpk6kXi4w94p0/sYv6KwaPxpKoJVDfRonsrGjhqWAXIOceIROQKhVeJhF3Siz1qmhunUhpCwfdRpp4fV8s67ZEwhmpvSWyO5LkXXYrWPsoGjvKT+gczdpL8KmLoVkrOJQGUQFvJKtrIadjjjjbjIoqluzolltW+eLFAM3txnnsQqFQRkZH+573t3d2PWhsvlVbd+bi5eLqw4mZuSFRcW47Q229dpCd3LUt7f7UN/lBizX3ShGL0OR7bmRHt10HYg6fOtP9+AncjZ8n45j9E3ukPj4+3v9ioO7Bw8OnziRk5nju2oMzt9msgfCVAsQywaqNm9Tw/8HpqRtb6Ns6W3v42vv4k53ctyBFQ9rA9ptt4f8KSP9nSfvEP/XTHQc/94n/wjv2S8/or9z3/9t5j4DDLqGtO0QtPCVMXKQMbKnX9VgS4oU2q5LA4HHQ6kSUtomSsYOita+8U4icxwHZHUkyQVlSYcVSkdUS8afFUy6LZd0WzasXLXpIbWcrOljW1FZ1iZS3ixY3iRbcF8upEcu4KZ5yWSLxnETMcan9ldJ7CmWCMmV2JMp5Rsm77FGwC1C09FQyskcRTSbeL2dotCCDEJYgGA6FN1Q2tFW08pZ33EWl6ndQOiRXan+lRNwp8eSLYhk3RXNrqXehy9sWwpM6XUEHFV3+PbGs2+KpV6gXPZGHpcIKZXamUa97XPYobN1B7ZdTcbH/imd+wtTB8zhDZX0bRTNXha07qOXQPULWN04mIJUKLbxMMuqIRPwZ8eRL1AfzE6VRpKhBpKxVhDoZA4tu3Vd2iZS1TSC9L5Z9lzqoJfGcZPRRqfAy6ZBcGf8UWe8YuW1hCnb+1KtJXcvlugRn9JpyijDW1NojaHdkcnpcenZyTkF6QXF2cVluWWVh5aHSw8dKDh0tqjo8ueSVV+WUVmQWlSbnFMSmZUUkJodGxfuHH/AKCXPcHmji7I433/qrrtFmjfleS5s6LwtXNqnhf9MztvbwDYtNLKiovnLzdkdX9xhnfAmeWY9yVPhllfr4+PizvufNbY+u3b5bcezEnthEEye3X4gLHGnCwuL1ykOh1ImKOEM5HfOXC9FMXttEEW+orKlLdTbbe0WzrvQZayDUCNQ3j0nWSmau1C6U2z6Z7QnSO9OlQ/Ok9pZIHqiWiD4mEXdSPP6MWOI5saQLYgf/mlxEky+Jplx+uaReEU29Ql1PviR68CI1QNIFscTzYonnxBPOiMeflog9SW0xIyql9xRJ78qS8U+W84mVd9sn7xSsYO2rZOKE0rWg3k7nRoCIzNW1qRdPZCcFW395172yPrFUY4XmSUWUS0YfneQpnnCWimgSafLFCZ6XRJNp6UnEn5KkXvdUTV73yG5PkPPYr+C4S9HCXVnPEnn2AsQocfjGiQdGKG0y9ZaShYeCfaC86145ryjZ7Qky1NKYL7WvTDLysGTMcep1UsKZCXrnxJJeAqTSoxbIKxPLP8VysjQm/SU2uSSeF084KxF3SjLmhGTkEal95VSku7Jk/A7KeUYpOAUrWnkpGdpR3yBV06YfZP7KxoHtAb7XJFIfL+oZqxqYYU2tiZZ22pZ2ODObyUXN0PwPfZP/6RghzsvJ9sirqGI3YnA4861ewWHphSUXrl6/39DY8+Qpe+ex5yhJMxuZJZc69Z7PyMiLgYHeZ31tHR2nLlzan5Rq4uy+GenTKZxQwiAOkwTQGLyypp6itok8yVrOyF6O7CRHdpIlO8uYu0tbeE4uUla+UlY+0pZe0ubuMmQXObKTvKGdvP5WeV0rRaKZEsEYRZ055+WnHfgcLJUnlqSkTVbUsZAn2cgZ2skZO8qabJvg6SFj6ipLdpYztKfS07NW1DZRxhlyfud72fIUra6tjDNQJJoq6FrI61nJGdjKGjnIkJ2lTd2kzT2krHykLH2kLbykzT2pixm1NMoaOU4ucvpbFYhmylgDNNXZjF3yQjB2ENiioY0xNNu+Z19R1eG79fcfP3na97x/cHBodGyMjR+qYdapbA+/5FJ/2vvs+u272cXl3iF7ceZbf9cj/4QnIX4MDeobxxGYmL8arUaYXtS1qQPxphciWn1ymdg4HRKPxuCpOueZLjhL2riXPPHIPNW0p7e/RMfhTx+WV5D09NSmiuLscjhZPqdLI2GiNALM5c0v5qvMRgxukxr+R6zuL0QDDWNLi21ee2ISSg8fe9jUPDjEmkH+bDfuMkSA9VLv7eure/Dw+LnzaflFwZGx/382fxNnd4KF7W96xt/NO5sgxymN+UIJSQACQAAIAIHFE5i0u5qRua6Ng5WHr+/ufTGpmWWHj127faezp2d4eHgZ7Milp2CB1AcGBtvaO27cqTl29nxuWcWBg2k7wiJsvXboWDtMjr9YfAbDEYAAEAACQIA/CWzE4H7CkzRNrMxcPNx3hu6Ojk/KziuqOnz6r0t36u519TweHmZ6UnAuFTYj0V6U1CkUytDwcEdX99Vbd0oPHY1OzfAKCbP12mHh6s2li5mLp5apNeJrdUqaulKkrVJ6NgteJPW3ShrYSRrCAgSAACcRMLBdZNVecJswa0fSVlmiGfVJAdI9ws3qhD/1Tc1dvbi0aWVttB22BwZGRCVl51WfOHW3/v6T3t75ZwtlxIU8E2ZRUh8fH+/qedzY0nq/oZE3ltu19VEp6VomVvT1Soq09QO/rPe3Zy5w2ZH1bmDuO6FFb4eVwAIEgAD7CewpeZu6FL+7q+A9/5wF1usFNwh0O36wI/Nr5zAUdTIGhMf/fxqYBuyLrH/YcL+RRxpbFiqjvatrYHCQZ6y8yIQsSup///33+Pj46OjY6BiPLC8GBk7/dcnQfhu91CUN7N/eVfx6SMXrIZULW9bvqV4TdXJ17FlYgAAQ4AACZ9bEnF637+j63dULq9Gs3Cu06mOfg2KmbohG34jBeYfsvVlTOzI6yjONLQsTMgbD42dcCCxW6jMOxQuro6NjjS2tVu4+9FKX1rP5cEfG6yGV60OrF7jsPrQm6tSq+HOr4s/DAgSAADsJxJ1bHX167b5j6/YcXmB1XnA7gLTjmyHl39iHIH64RUUVa2jvUlR1+MXAAC80spCGJSYAUp8FeHyc8mJgYFvALvrpjuW0Tb9wiXgjuHwxTcDaAydWx55lZ1sG1xNAgO8JrI49uyby1NrwY+t2H1pMdWbZvmFHPnOPltK3pe9LTH66Iio5/WFT86ymCn4AgTkIgNQRwATtj6af505RiyRs5vFWUMliavLafcdWx5wBqQMBIMAuAqtjzqw5cHLd3qPrQznC6K+HVr0bVCROdpl4mk77KvkWDW1TF4+LE58hR2iqYBMQoCMAUqdD8vff8Rk5ODMbmqtmNAYvRzB5O7BoMVJfF3ZkTeQpdjVncF4gwNcE4s6tjj27NuL4es645U5tSXZXvxVS/q3dLgW8MU2Do6KK3YTB/alvUlJ9pOfJE4R2CjYBASQCIHUEKsXVR0yc3OnrmCLW4J2dhYuR+vrdh9bsP7EqDh6rw6gCILC8BOLOrY46vXbvkfUccst94sn6G7urPgjKkyeQEd9k+5+OoYv/ro7ubvjuOEIzDZvmIABSRwBz7vJVpx076aWupEX6wC/zjZCKxXgd7sDzdWeR759nsyX3V8ecXbP/xLowzjL6+j2H3/fPETPZhlJHmJT+O3WCmYvHhSvXYGYVhDYaNs1NAKSOwKahuSUg/ACC1DX1PnOPWeRj9XV74Q788nbRwKP8TCDu3Jqo02sjjlONjjTsnG0bdx96d2fBN467lTV0EF9jI1raJWbl9ve/GKdQEBop2AQE5iAAUkcA87z/RXRqxhZN2g9Uo9SJAtZ+7/nlLKYhWLfn8NqIE2zpr8BJgQAfEZh4gr4mcmJMHCfdcp9sPd4IrfzcNVKGZE3feVBRxf6XQAraH117/wFC8wSbgMD/a++846K4tjj+R1BEscYkpuelvJSXYoolgD2aTt9ddum9F5FeBKRIW3qvKkUBBemwsPQqvfcuvXcBIe8zu0oQlr7AAief+ZhhdnZm9jtzz2/OveeesyQBEHXKeB5GxrCLSs9rb0isHFbquO7d9Yj6PstYelsiHQyr72b3EX77RhNwz6BzTdvrkERDMXFz+wnwsceMA76Q0p5nYch/MrOhJdV0iGkZUG+UsnWGrUsSAFGnjCc564m8jsHCJvczG+YtbY99+LXmnyE17Bcx8KDrG23Z4fi7kgAdqcud3pZIUzFx/3oC+FgGW+Ln0jfPcPEttDDMbOgraL7gqNje/gHKtgm2AoElCYCoU8ZTVl1j5ui6sMkxsaLeU3c8sL4UNPvwhL12CRADv4u6gneluG7J/UWmoTsk0dNYlPscRSfst4z+UBn/A1aCiY1CjvcraH5zJ9equvqpqeeUbRNsBQJLEgBRp4yns7vHPyScoqh/Im981DDg31Y6t1dtxev01vFIFhp3CBkDAkCASgTcSJPW7BJpJPMrRRNxwCLyDQOfk3wyFCPer6D5RZQ1cotKhkdHKRsm2AoEliMAok6Z0MTERGJG1hU0P/OCt+lvBRROaLpSbLGr2Ign7HFMfg1SxoILCwTWTwAZQSdnfqXVLnfS6z4DPvaYUcDnsnoUk8exsGN4pBXvBD4aHgFFp2yWYetKCICoL0qpoLScX/7GwiTwZ9l5PlIwW4V+L+K+77WJp3OBlLFU8tLWLwxwhG1KgBwTZ0/TDjrZXDCah7+vbk+x152JFfUbr7ChtUP/wCDExy1qlOGDFRAAUV8UUk1Do4GV/WUUhWCWT+SND6wvBQ25kSMpYyFcbptqCVw2LRBwyyAlcqexrDKU3uPpbYjvqdn/hBGhOKjHzIbWMDbPKSwGRV/UIsMHKyMAor4op87u7oCwyGtYoYWN8AsJ7WO3HlDBWbeH+i7gqQOBNREgp321S6C3jqPRKPc50k5vHf+2luvXwtcppoNlYkWJqWiGxcYPDQ8vao/gAyCwMgIg6otyGhsfLyqr4BCVZmHHzNP1k7wyH9ywWb+o01vH7XFK3pIgYTgpENi+BJARdMfkvTY0PYI+ax8YLGOOGgd8KaF5mot/niVBqrawY/4SELsbFNzc2raoMYIPgMCKCYCoL4pqZmamp69PVkvvCnp+UzzLwfuFuDYDPma23a55Za99IlRY377qAle+2QSQEPe0PfZJiIM+xxWm2XUGy5hDZqGfKhpT7HhnZkP/ghHQx9tV1dVDOthFbTF8sBoCIOpL0RoeHXW668spJrPw/fproeuM5uH7LNer66RU8OCsr6kDlhbGdOEaNpEAnRsS4k5zdVmWfLdgNI94W8/rNPd8x4BsUi5y4QQUVMqqa8afTSxlieAzILBiAiDqS6F6NjGR9iRXRFl9oaif5JU5oeOx33xdFdsQ9wJPoLdLgKyxm+3wbaIUwU+jCgE6l9S9dgm0P3z+Sp+Bddyb+vdOYUR+XjAzlmxS+OVvRMYnjoyOQXzcUoYYPlsNARD1pWhNT0/39PWpGpounNh2mov/K1E1RtPQV9rwku/si+0JWWOpYvThIDuVwMskcdtjBP3fZm4d/+ZN7/+JqiwWHIeSkHPw9unp64Ny6UtZYfhslQRA1JcBNj09betxh01Ycp6z/jMb+keMyBHjIIZ198AjzrotEUbWd6omwe9aIwH3THJ/+157Uoj7mt6Y/5XYTf66Vdzrt+7/F0nwzjvPdJD//BUnZGLvXFxeuYwBgo+BwCoJgKgvDywiLkFSjUI9pdNc/Ce03ddZXv2F0cETYM76sqaf8U72O365XwYV/BhSdDa0mCm0+Mzj4u+DCz8LyD/u82SfV9ayR4AdtgsBpCiLS+pechb3TdbjdZ+OwTL2oFnop/LGP2FEFyo6Mxv6PAePsr5xctaTqamp5Q0Q7AEEVkMARH15WhU1dQZWdgvzxZ7lwH4hoX2UGhPW91nGQoK5xfSGziNzn1fWsXtPvg8uFEiqtihuuV/bEdPSE/+0N6Kp+25Vu15e41+x5Z8F5B+6k73HE2LutjkB98zX3DNIddDjt8zPXp+uM5pFfKBmi5RsYUUtXM5x8HCLyxJTM0YgHezy1hf2WDUBEPXlkY2PP/PwD7yMXphaDn2GE/emtie1TM8exyTIBr9Q2vd5ZX0XXKSX2xjW2J3V2Z/XPVDYM1jciyxFvYMFPYM5XQPpHf2+NR3iKTUnfHNA1xcy3DZb3DPoXFKRqqlWBGo1q00+DqNZ+ImbXj9hRCkOpTOzov7kFw2PS+jq6YU5bMsbX9hj9QRA1JdnNj09E5eSJqFKoQeeiRX1vqrtQbMwqhiOFxFzEJg9h8BbvjnshAr3ivbE1r6CnsGyvqHS3sGCjt7Mhqfpdc05Le0lPQNlfUNlfUM5XQMRTd2mhc0/hhQdupO9bWRszo/d5ddM55qG9Ldbb4Ocr4u19/2W0W/d9D7JJ/vzgoxVZJedU1TG6Y5vW2fXJHS8L296YY+1EABRXxG1moZGW487C3vSmFhR/xNTe1PXa7FGvrrtpDrrSElWMPQkAu/45XAQKu5Vd+R3I3Ke3dwWnlPoHBJh4ulz08FNx87FyO2OW2jUk5b2UpK0l/QOZXT0mxe1nA0tBl3fPk9RBhLf7pi81y6BlqumLtuWGawIb+rd+Upcg6KhYGJF/SUgdsvaHqmV/hxqpa/I8MJOayAAor4iaCNjY7FJqb/ihFkWzDc9w8X3oZIFg2X0sm1+JTvQW8XtcUiCKi+veWQy3sn+LbrMraKN7J0nV9V5R8Wp4+05JOTOc2LJdvMPAXENK/v0uqZZf720b6igZ1A7p/G7R4V50ib9AAAgAElEQVTQD0/7uk7nlo5MQHdI3C4Z4hZtxVaEY0YPPpfSWcxHv4ziUzMyTc7MXpHFgZ2AwFoJgKivlFxpZbWMlt4FLtzC1/DPpPUO3Q5etLWvMuiG3jqezjn1NfdtHu607s6GL4MKTAqaS3oHS3sHn7S0W9z1R0krzYPPr6wRmp1X1NVH7oGf/Te1rU8qtebIXeiEp+GniFwE3TF5W3vnL1o9PvYAPupLSa2znJQnsLGwYwQVVcPjEqDXfaUGF/ZbKwEQ9ZWSa+/s8n0UepVHcJ6uMLGivsdJfaBsRS1R34cn7LUhvuaWQftu1oZeoXRabWRTd1nfUF5rl6XPA25ppXMcPPPgS+rcym/vLu1FOufnLiW9Q87lrZciSjf0CuHgayZAh5RMTaHfJhVZlmnaVnEH8NFfSOqcQgkysaLnPaLkki1/CoiFEeJ7+wcgc9xKDS7st1YCIOorJTf+7FlZVQ1aUn6htJzlwH0hrrmfSj3w+yxj6fGEPY7JuzYdzR7PzLd9c+xKn+Z1D+S3dYVm52MVVC9yU/CBxLT0sxpbS0kBdHNFvaxvKP5p742serp1dxisWbfgi5QJkOXcNmFbB8T9K/NWcYdNHn0ib3IKLUwx3J2FHfO3oLhfcFhLW/tzGEpfqbmF/dZOAER9pexmZmb6BgZ0zK1+5xNZ+DJ+kk/mTV1vKqSCf9lXv5tzx+73zroQXhJY11nWN5RcVWfm7XuFR2AhcyZWFEZW2TsqLr+ti6zohZ296XVNxLLq/Lbugp5Bh9LW4z4ww41WeuCR4XPnFFKBtW0c3/6vnJMKNxwxfviRsuUSE9i4xGRsPe60tLZNTk6u1NbAfkBgHQRA1FcBb3z8WRiByCenvFBgTnELfC6pTZ3sci91fa9dAp1LKmV3Z0c7oIfuZIul1EQ195T1DYXnFAqr6sxGxs0jfxUnJKVr6BefHJVfHFNYGpSSafcg2OlheEp1Q1nfkG9Nx3fBhZBpbusfITdk9vkexyR6m/h9ltt1Avorck5S9IOmoR+qWP/AKzXvsZz9k1VIwsTOqb6peWoKwt1XYWlh1/UQAFFfBb3p6en2rm6VW7cvvIy+nm29TKyoU9yC1EkF/1LU6fGE3Vlt/cjdJ1o5jQmtvWV9Q4EpmddwwgvT+c2SZ+HAsIvLyugZyxua4ZTUrmAElIwtYwrLyvqGHjV0/RZddsAbwuW2zll/GQ23bzvPPp8v56QWymAZ876a3Ul+2dlHcd7KZRSfgZVdUXnFKkwM7AoE1k0ARH11CKenp+8EPMLJzA/DZmJFneHk/UjZ4pDxI4omYG0b6a3i9jokbb2ntbkdA8fuPTEtbE5p7yvtHfQnprAsksdj1oaycGAucOMucvOe58Re4MKJaepF5BaV9Q09buzijKtgBFHf3Nv37+OKlD9PRtLD4XeKd05+4cYTGCxi3tV0Pskv+zP7/ODN2cdS08QiIzd/AnrdV2diYe/1EgBRXzXB0qpqPUubhb7jz2yYH3nE3rh5Zx8+dm0STvFbpMH15F01c/3YvSfGBc3JbchEtfuJaYv1vc9az7krF7hwkjq3IvOKy/qGQhq62Agg6lvgpiPB7U4pe5FouLidp+iMZuFv67h/xy93loPCBFcmVtQFLpyM5s3E9MyBoaFV2xf4AhBYHwEQ9VXzGxkb8wsO5RSTmasls+sfK94+bBREUZ7XuBFPoLeJ3+OSunt0/cjdJ+rZDURS9/ujtOy/RaSXddZn+V9C8alb2seVVJT1DQXVdV6KKN3vDdXbNk/X6VzTETm3397ZXhdtqnjCQdPQd7RcvxFRPruIj34FzS96QyM6Iam3r3/VxgW+AATWTQBEfS0Ic4tKdC2sFzrrTKyok3yy76g7UaHI+suRdcS+4An0dgl7XNJ2ia4fvJPNn1gdQZqkHl1QIqNvcoHSfLZZIZ+7chUrZB8QklbbVNo3dLe6/YugAnooyboJ3e/uGUjtc+eXxVJ3WH/7y153RvPwd7RcvxZVnfvIzV2/jOITvaHxIDRiZHQUpqSvxbbCd9ZNAER9LQgHhoZCY+MucfNS1PVPZW8xmlGnxMscj4Gw1z5pl6SFZ/DKOvO42L+2o7RvKK2uyT4w5FdeEYqo59pTJlbUOQ4eDgm56ILSws7e/J4Bq5IWBq8smKr+7yD3xqg7HRINl7bHIXEn5Iab+zL96jqDZfQJXY9vRG7Me+pm/zzHwSOgoOLzMGRqagoUfS2GFb5DDQIg6muhODMzU1xRKa9jQDEjyvc4yQ+U8dQfSiQHw++Cci90HpkH72RbFbfkdQ0Ud/cnVtQKqmpfRvPPWs/FVv4WkTJ09ULqu/QOhjV2i6fUgKJvrKKTKqXutU+ktyJQ/4F/VVPnvOBSM2ZlRYfFExgso9/W9fhWUGGxXncmVhRaUt4vOLR/cBAUfS1WFb5DJQIg6msE2d3bFxJD+I1XeKHAnOXAfSmmwWgesc8yZkUmY8XGCwmGt0+kc03fWEu9Mf7cqq6ZzjMTQ6x8UIvknylo7/Enpgir6VJ8hZrl/4eAuJqlXXxpZXF3f3HvoFlh83ePCld1Uth5FQTcM5HOdvtEept4RNFX/Axvvz3xBEZzUmScoMKZxVO7c4hK+wWHNre2TU9Pr9GmwNeAADUIgKivkeLk5GR9U7OUus4VSh7kD1jxD1Rs9ptHUt2EIWXc7JN2QwbZTwLyVbPqU9qQiW25Tzs9I2IVjMz/EqaQ6OM8JxYjp6zn6P4oLZtcru1hfScmvvIwFHTZgPcz8tj5HockelviDpfzFxlmHr+j6fyNsPJis9fOc2K5JeS8HgQ1trRCItg12lP4GvUIgKivneXI6NjdoGCMlMLC4d6zHNiTvDJHDQMYLKhTknXuywG9FWGPY9KO99fpPDLPhZVYFbc86Rwo7R3Kb+9+mJat7+Qpoq6LkVPmkJBnF5fjklLkVVKT0TO2uf+QUFRe2jtY3DtIbO2VSav9LCB/FX7nBojfzjs7uUwqIuc2RPodGQo3r7+BFOv+robTNyIUkkiSu4gucGJ5pBVtPe529fSCoq/dmMI3qUcARH3tLMkJ5jRMLC6jKNQaIeWisTxsQs1cNLPSTq748prbDu+H3++dxRxafKeqI6uzv6QXqcNW2NGbWFF7J4Zoc/+hpU+A46OwwOSM7KbWku7+0r6hop7BpLY+rSf1nwbk7TxN3bJf5J75GikUbq8jaaLaPOXbuX/ut4h+X83+OwG52SGeeSss7BgOUWkrN6/+ARhHX7shhW9SlwCI+rp4Tk9PRxETpTVuzmvtyJ9s6DNcfG/peDJQNRfNv7puFbfHIWln6zqdRyajd/aXQQWG+U1JpFw0pb2DJd0DBR09eW1deW1d+e3dhZ295NKrRT2DwQ1dAknVJ3xz6D1hbjp15qYjke0uqXvsSJHtu8E7J7+j4An7LaP/o4z/ASe1WK87Eyvqb0EJV9/7bR2dEBm3LjMKX6YqARD19eLs6ul19wv4W1CCgq6zor6U0Hzj5t1ZJabuCml8PXG7znNzz6Rzz6R3y9jnlkHvlkHnTrl+PJ1H5n7vrM8D8zkIFbfymh43dBV0D5bOqZ5e0juU3tF/p6pdKaPuYnjpu365e0HRqTGagIydO6XstUsghcLFUffRpemjIdVUgz9RuP0DVuIsB5Ziu2Zhx7AKSXgHPKxtbJqCgqrrNaLwfWoSAFFfL82ZmZm84lJ9vB0LG3ph+z+FEvpIyYLRLHyDrNiLePhtkpeGzj1zj3vGPtfUQ3axb9/0/EDN9j8q+I9v4D9StXnT2I/BkbhED/Oxe09OBhdyxlXIptdq5zQa5zffLmi+ldeknl0vklxzLarss4B8qN2yBMCVfoS45ml7HJORyPYdV4Vl+WZoFXfM8MEnCrd/wohRrI/OxIq6yI3DSCl4+AfWNTZPTk2t14LA94EAVQmAqFMB5/DIaHxKOkZS4RwHheoOXwvfOKHtSd2E8K/YJjxhr10iHa3q+kshTzloG/P67cC3DH3f1ff+RN32Bz6Z2dTZP3NgvxFXO2b+aM9yUQJ0Hpn7vLLe9sv5b0D+F4EFHz/IO37vyR5P6nQ1r1T2qOEH0+K5yDlkyN651W5yzWfDAqwIR40CP5UzOoUWWviCTt5yiZuXT17Z5Z5/V3cPRMZRwXrCIahNAESdOkRb2tpdfe7/zivCwj7fX/+ZDfM/YRVG841y1skC/6L4+iKd2JssIXTuGXvc0+ldkhkc4hntCEdsY94yD/5M1eonrPhitpKJFfWBrtt+p8RNvlQ4HUKAXCDVKZneZsdVVJsV7OVWGCxjGC0jvpTQXGwyOjllIU5Wyd0/YHR8HMbRqWM64SjUJgCiTh2iU8+fN7e1y+sYXOURWKhbP6GFPpUxOGAWsc9yw9J0IHVfiHucUrZUpZChcXq3jAPOKcdsoj7WdDgppHAKLXQKLXQaJXiWk3ex/kwysf8q3T6CD9vS69+NHj+da9peh6SdV+/8ld6s5RR9Pz72qGnwty/Sy8x/L59t0TzSin7Bob39/aDo1LGbcJQNIACiTjWo488mkjOfiKtoLeyE/5md5wes+Fu6nhs3uI6YMFI9t70OSXRulIPOqKuXJHc8g949Y79r6mG72BPGfp8qGH0pqfU/cfWvxdS+E1b+CScx28E+axaXWPlYzfaQXSx1LxKOtggBUv0VpJwaEge3z2rHFUhdTsXnSv5B8/C3tT2+EbpOelwpK/oFTqzwdfXgqNjWjg7IGUc1owkH2gACIOpUgzo9MzM4NOzuH4CVUVooXWfZsf8TVXld35fKBdzmGS98LL01KZUsdUq1ZiAds0hfesZe94x9bukMLikH7QnHzYLeuen2oQr+IxX8f1TwnyhbfK5g9K2Y2mlugaV98YVYXmxhQ5/mFnhb/84+5+RFRGg3+tAbgsKNNEXNMflFWPvumaU2r6WQ/8THHTF++L6q3TfCykyslOWciRV1DSskq6UfGhvf0dU9PTNDNZMBBwICG0AARJ3KUCtq6syd3P7gE6EoYB8r3D6ud+/orYAjRkGHjB8duh1y0DSU0SzsgFn4AfPI/RZR+y2iGSyjGSxjkAUfi4TX4Qkv/yXVzED+XGahJ4XO7XFORSYZv1gy6TzmLKTpZKQQNiQcnazZe93S6d3SGFyS9zslMNrFHsaHHjMNOG7k94ah75uGvicMfd+5de89Pa+PNe3/J3vzJ5wkxR+42o1nOXl/xEl+Lab2qbzhQXz4a+4g3htDgFwa1SUVCWu3TdjZ5dTmeuGLruMJDPjYI0ZBHylbnuSTWeK5/Y1XWEnPKJKYODo2Br3uVDaXcLgNIACiTn2omXn5akamCzvhmVhRZzj5vhOQ/1z65qcKxh8pW3ygavueptM7Ou5v3fR6Q9/n+C3/Y0YBR40Dj5gEHb796PDt4EOmIYdMHx9EllBkuU361zTsoGkYI7KEMt5esJD3NA1jtIw4YBO9347wYrGP2/9yOWAfx2iHLAftCIfsCIftCEdtYl+3jnoTH/r27cAPDbw/U7P5WkrnFI/oGj1vVtQSVvJnNsxZLr7TKGSs/RuRGx9oOTM6Jiwb974hbutOjWOf+7vcM15zS6dzTtlrn4h0s1N0WHffRgZ8zCGzx19I655CCS7xrF5G890wMCGmZVDfTMARgcDGEABRpz7XkdGxhPRMlKQ8JV1H/8zOc5YDd5YTd4aT9wwn3xkuvtNc/MjCLUBeTnEL/rugBE/NXbhf/RM1Z8/Zb/27v9ApknCSQ9WW/fc0CglnO80teIab/ywX31kO7EYoOhMr6hRO4gstu9ctwxhtYxkciXtdUhbLPANCvi4C5NyuDkghtV0+aj7/VcYq7vgt/2+FFM8gwZuL9rozs6GNbZ1yi0rGnz2jvpmAIwKBjSEAok59rtMzMx1d3Y+iYlmFJFjYMUv4AbvhI2Z2zGUhGU4je4U7IbeDY12jE13j01UJuce8kKGBdYnWXH8U1mcJ/DvdnFwXdVcHwc2XczzhgEXkuxqO3wgqnuXELTaOzsyG/p1PxM7zblFZxfDoKPVtBBwRCGwYARD1DUE7OTXV1tFp5ebFISK9G5R77m88z833m7giRs9C2spVw8nb0MPHMjDMNb3wUdXThJbu3M7+3K7+h3UdnzzI2+cFGdqpN4JOnmvunLrHIYkcBIfEXuy+fvVFfzJpEP2oUcCHN6y+FZBfohfqAhcOJ6PkeMe3qq5+fBx89A2xkHDQjSMAor5RbCenpipr67VN8b/iFs1ONVcLt+M6MxvmCk7kDwlFTiUtrJqesNYtcR1DeRMrHa8HtqkFQZUtSS3d+V0Dc1O1l5HStmd09HPHlb/lkwOe+noJuGciFVFd0/Y4p+zdPUVRV/uyQnLQjxv4fqpg8hOGchAruQFeQfOL3tDw8A9s6+iEhHEbZRzhuBtJAER9I+n+8w8hOVVex4DS4PpSoWQ0JfAs7JjznNgLaP5LPEJXcCJX+USv8Yv9xi/2u4D43yIyYgbm2v5hNukl98tbElq6cjr7insGycq9xL+FPYP+1W0/BRfSzXYaw8pqCSAB7Rl7XJDUMcioOfjliyv9AcuoN/XufiustETJNWY29EUunLiqVhghfngEutw31jDC0TeOAIj6xrFFjjw6NhYUHoWRUqApnV7VxfwmIIZV05WxddcMjDWPz3bLKAnIr4ooq02obkira8pqastp687r7CvsHijuHSwlVT1fQs7JH5X2DeV19f8VXcroDT3wq+6BRzIHuKT+W3AF5HxxOd9nGXsAH/WhivWPPGJLKDpSpoULd0PfJDOvYHh0dHoaJqNvrGGEo28cARD1jWOLHHlmZqbpaavXg4e/4oQolnG7xivCLa+KVr/FpX6L/boOq5zqX1JKf4rI/MYvdo1X5AqPwAVu3Pod/XMcPBe5eS9jBK/xif0mJP27mMJf0jc4lLSw2saKtm7qnvd1/UIMAyPNgmOtw+IcI4hu0QlesYl345L9iKlBqVmhOYVRpdXxdU+TW7oy23pzOvsLugdKel8pgbqskM/bobR30Lqomelx0Xr7n1fr4G7T/d0z6VzTkT52+yR625flUEHOl5Bz0iD664b+n8ka/IgVX2IQnZkNzSUmY+PuXVRWMTQ8ApPRN9YmwtE3mACI+gYD/ucf8uA63sUDKfeyYP7MNV4RER1Dk8AIq9A4y0fRFoFh5veDzXwCb3v7m3j5GrrfNXD11nP21HV013VAFh0Hd017N3U7N3VbV2Sxc1Wzc71u46ps46JK3vLyX017Nx3SV3Qd3PWcPQ1cvQ3d75l4+9++F2Dq+8j8wWP8o0j7yATfjPxHRdWR1c3xjR1JLd1prT1Z7X25nX0F3f1FPSv1vOcJ9gr/TGztEUuuPnQnG3R9MQJI7qAX4+UvcsDB5LRFQ+HmCjyecMj08bvqDl9Iap9CLRXUcoETK6Ks4e4XUFlbD3VUN9wawgk2ngCI+sYz/uefZxMTNQ2N2qb4P/nFmF/V9QtcOKySuvXDiIjCioSqhqSapqWXxOqmuKrGmIoG8hJd0RBV0RBSWv+4tC6ivH52e0xFA6GqMWG5oyXVNKXUtWQ2tee2dRd29pX0UAhqW6FCr2G30r4h6+LmUyGFi0naLt0+G/tGTgD3Ij07hLLHrlDO91tEHTUK/FDF+nteySUcdBZ29FUeASl1nQeh4a3tHZthCOAcQGDjCYCobzxj0hkmp6YqaupUDE2voPnnDWmf4+BhFZWxDyWEF1YkVjcuLeob9GlybXNaY2tuW3dRTz/Sr967fLDbGlR84VeSWnu0suv2eWVBxNxr7qRM+27pdC5pexyT6e0SIAHcilR8roNuGXvAIup144DPZfR+5sDOa2hz/2Rhx1zDCspp66Vm5wyPjGySFYDTAIGNJwCivvGMSWeYmZmZnJrKyEUyyDIvyKJK1nV8YFhEceUGyfayh02ubUKkvb4lq7kjv6O3ZAVB7AtFerVbinsH71S1fRtUsKvnrJP72B1TkPnl1qQ4dnJ6/1flag0Kt7u+go/bj4/9UMXqJJ/ssuUB2UWkLJzdG5tbxsfHoUbLJhlBOM2mEABR3xTML08yODwck5iioHtrrtNAXj/HwYNRUL3tExRWuGW6nlTTlFyLdMinNTzNbGrPae0q7Owt7RlYrVSvav+Utl6TvMZj957sqs72F4PlTslIELstkd4mnt46jp5cvAe0fPUE9ltGv2Hg86W45g9Y8bNL+ugXOLGyWnqB4VENzS2Tk5MQFvfSOMH/dwgBEPXNvpEd3T1hBKLwdbULnPO7B89zYnHXNU3uBYYXViRsUT/8rEOfXNucWv80s6ntydPOPGTEvbe4e6BsZTPWViXqRT2DhObua5Elr+94XSd3rTunIKXS7BNfFD+FIiurl/BXeiCs444ZPnhfze4rcfWl5ZyZDf0nv9hNC5vYpJSOru7NbvlwPiCwKQRA1DcF86sn6ejqvv84nEda8SI3bp7Lfo4Ti5JTMfMPDskpjq+sn5XYrV1JrW/JbGrLae0q6Ogt6uov7hmg7qB7XveAbXHTdw8L9niuetI2Dfv3pLq3pHRvyDC5M6nsqR05HztEva0s6m1JvWewjGU0j3gDyRNn9ANOYl5TmvfnZRQfVkbptr1LQWn56NjYqy0S/gICO4cAiPoW3MuZmZmhkRFHbx80pUpuzOyYa3xixj5Bj7ILiTSj6+S3ipS6lgySuhd29RX3kKaqUyOkrrRvqKBnAB1fse074UnBbq+RipfTuSFCvtchiVS/PH6fJQg5FYR81kffbxl9yPTxCT1vZA46O888CZ/7Jws7+gqaX/i6ms/DkIHBIehv3wKTB6fcRAIg6psIe86ppmdm+geHXHzuoyklm2Nmx1zBCqnbu/unPtlaH33h2ZNrm5Nrm8nj7lktHXlt3UVd/et33Ev7hh7UtP0VXUrDnvdyvQiksuUv6qlYx9FbEZDUrRDytqS3PSvSq1uxiX9T/+5XkpqnufmXmLRGlvarPAL6eNvs/MKR0TFQ9DlGCFZ3JgEQ9S27rzP//NPc2nYn8BGfnPJcx+LFOhv6D2EpRVMbj+iExBVMN1+ovhu95UVIXf3T9IbWzKb27KcduW3dBcjQe3/Zmtz3J539+jkNXwXmbwNdJ/viLql7nFL2OCYhA+S2xL1IsFs8vRXEu1HTI39F7PGEfVZxR00efqxw+zsBudPcAhQazpypJRc4saI3NPyCQ8ura2De2pZZOjjx5hIAUd9c3q+ebWZmpqG55V5QMK/s9fOcFLoQfxeUkDU0d4uII5TX0qa0k18dZmPmM5rasprbc5525rZ153f0FHb2FXX3l/QMrFDmwxo6JZOrGWhq2jpZv13T6FxS6ZxT9zglI764PVLedO/LqPV9VtC1vmFC/tLRZ8DHHr4d/J6aw+cyej9hRH5+NYnTPHU/x8HDLiylY24VRUxq6+yampp6teXBX0BgxxIAUd/iWzszM9PS1u71IAiJm+OaHzfHxIq6ihUW077lEh4bXlC+5SHxK/T+k0mJ6tIbWzOb27Ofdua2duW39xR09CIa39Vf1N1f3D1QQmlIvrhn0Ke67ezjIobNLLXunvlv4hckrg2pZErnQlbxlD1Oyci4uH0ivV0CvQ2R3ioO6qG94j2/FN0N3IgnHLod8obevY+uW/ywZBZ3srRfwwoKX1ezdvPKKy6dnJzc4hYOpwcCm0sARH1zeVM6GxI3Nzzi6nufR1qRor9+joOHW1rJKig8tKAioWprUs6tUM6X2C2ltiWtvjWjsS2rueMJ4sr3kF35YpIrj2g8sgxmtve6lza/4/tkj8cLrSUpbuZr7ssNaS+s1IKo9dyDICnbXlncMl5zQ5Kr07mk7nGe1e8EZOI4Miget4FCtQlauCNOsd8i6qBFOJLzlU92nju+8E8WdsxVHgF5HYNIYuLg8DCl1gbbgMAOJwCiThM3eHpmZnB4xDvgIS/F8XVW1DkOnr9EpLWcvYNySpcQTtr/iBxn9yLaDgm4Q2LuUupaUhuepjU8zWhEVD+qupktNO+ERxrS1+2cgkwGc0a6vhHv2S192eU117RZV5v8XdLINzI7fI/D7ATxBHprxO1+4XnPRrS9WNnwzmR4XViegFXcAcvIEzc9T/LJnObi/5kds1DF5245x8HDJizp5vegqq5+bPwZ5ImjCdMGF7HpBEDUNx35IiecmZl52t7hGxwqpKQ211TNriO6Liorb2rjGZ8aX0ErU9ip9hpBSlKLxNXXNhNrmlxzq8/7Zx6xJ3nM1qQANOt4JO0ashCXW17uOftF6ziy5z1fxXeEL7u8Om63n0lvFcdoEfGOpsuX4pon+WTOLjljjdxAOEVlDK3tEzOyWtran01MLNLIYDMQ2PkEQNRp6B6Ti68HhEVKa9y8QGl8nZkN/Su/mISBmU1gaGheyVZVf6GakC8S1Z9Yg1Si0yYWn/ZOPQAlw7ebJK/rJQNPOGAReULL9WNF028FFZdN4c7MhsxBl9PW93rwsLCsfPzZM5i0RkMWDS5lKwiAqG8F9SXP2d3bGxmfKKOpdw0rNK9OK9kpOceJ5VFSN/MJDMrMj6tcvlrrRmvwBh0/pLROPrrgM5fEdYnErlLE7fxjGfCxh0wfH9f3eU/D8VtB+TOcvLN9VBRXmNnQl9FIkjgdc6u4lPTO7p4lWxV8CAR2CwEQdVq80xOTk+k5eYo3Da/yCFDUdSZW1F9CUpoOnvczC5DZbludKH6DdN23oEYsPO+odRzDdpYreClZlsB+86hDZqEfqNmdFJCjKOHzNp7n5LmGFRJX1fYLDu3rH5yenqbFZgzXBAS2ggCI+lZQX+6cMzMzE5OTJZVVxnZOv2AoZ9hgYcf8ghXiV9fDP44llNdukKxu7WGJ1Y3uOVWsgVlHrCEQfYfG7uEJB6xiPlB3+E5A4QwX39IJX2elHSej5Opzv6K2bnQMksQtZ03g811GAESddm/42FfrGlEAABf6SURBVPh4aWW1812/vwUlWCiF/iI9kBgBbnlVbQf3+2k5cVU7sCs+uqLBKbvy3L3047bxyzp8sMP2IUDYZ0U4ahTwoTL+a+EbP+Aklx0+Z2JFXeDEcohKmzm5JqZnPm3vGH/2jHZbL1wZENgiAiDqWwR+Zad9NjFR09Do4R/IK3v9EjflUUYWdszfojKKZjb2obGhBRVb61tvxNljKhuMk0uZ76W9bgv++vb31/Gx+y2jj+v5fKBi84Wk9g84yVn/e4kVJFWDuJyOuVVgWFRZdc3IKJRZW5kFgb12HwEQdVq/58+fP+/p6/N6ECSuqnWNR3Axw3cRxSugaXD7fkhgRl5cRT0t55Rdg/DHVzWqxxed8k49ZA0JWbenruMJDPjYg0gonO87mi5fSGqfQgkt9jDP3Y68swpKyGjqudzzzy8um5p6DvHttG6z4Pq2lACI+pbiX9nJZ2ZmpqamQmPj5bQNrqD5FwudY2ZF/SEkqWTt7JuaG1VSTdxZvfExFQ03CIX/dU3cj9+eqraLY/0YLGMOmEccNnv8vrr9d4IKczV7iXUWdswVND+XmIypg0tRWcXY+PjKmgvsBQR2NQEQ9e1x+2dmZsbHn+WXlFk4u19C8S6m6yzsmEsYAXYJBW2vAP/sojX4xDT7lcSapuCSOo34ovcciKDr22bsnOSgHzEN/kzO8HteqZWHwjGxojjFZEzsnPJLSvsGBiYnJ8FB3x6mCq5yqwmAqG/1HVjN+UdGxypr6+8/DueXv3EZxbeYl3OeE/unmJzkLXN8YGh4aV1idRPNSvWqLoxY3RhQVKsWV/SJc+JBKIxG264/vXX8QYvwd7RcPpfS+VZQ8RRaeIWR7ec4eNCS8pYuHnEpaXWNTRDfvhoLAfsCgX9A1LfZQzA5NdXZ3RMWG69laskuLLWYrjOxon7BCuGUtbRd7njEp0eVVO+MUXZiVeOj4jqZqPyv3JJA12nRXyelhHvdwP+DG9afyht9K6R4hmvRt895T+9lNB9OVsnAyu5RVExFTe3QyMg2a5xwuUCABgiAqNPATVjlJZCG2J9n5uabOrigJOQoznYjm0sWdvQvWCFJExurwFD/tJzI0ppVeca0uXNCdVNISZ14RN7/3JNB12lF1/EEBsuYwyaPjuv7vKvh9LmM3mlu/qVLns8qOjMb+heMAFZGSd3Y7G5QcHl17SSUP1+lTYDdgcAsARD1WRTbb6W+ucXzQRC7iNRFbhwLO3rWSi5c+ZVPVNLUzjY2Nbq4Mr6yYQd0yIeV1SvEFHzmkgTJ4bdW1xksY/ZbRDGahR01CfqPssX3fDJMbEs9inMfThZ2zGUU39+C4rJa+kHhUc2tbTBwvv3MEFwxjREAUaexG7Kay5maQma7pT7Jlda4eZWHcuI5sg1lZsdcQPH9LSYnd9vaKy0/pnzbF3kj++s6xOJPnBNB17dI1wn7rOMPmYci2doF5E+hhM5w8i5bIHWuqLMKSeiYWRHTMju6u0fHxp4/f76axx/2BQJAgAIBEHUKULbRpufPnw8ODReVV3jeDxRV0TzPyTPXaM5bP8eJvcYnxqOspeHo6RmfFlOxvTPQEasbHxbX3Uws+dYj+YgN5KXZrJl+eAKDFeGQWej76g6fS+l+I3T9ZT64lTro5zh4MFLyt+2do4hJ1fUNA4NDkLx9G9kcuFQaJwCiTuM3aEWXNz093fS0NTwuQc/Shl1YaolRdkTm2dB/ismK65ve8n7gQUyPLK1N2Lb1YBKqm8LK6rWJxed80t+ygzyyG6nr5Mlpxg9PaLl9dN3iM1mDkwLyKw+CY2JFMbOh/+QXk1TXsXTxCImOLa2sHhgaWtHzDTsBASCwYgIg6itGRfM7jo6NF5dX2nh4i6lo/ooTYllyaJOFHfO7kLSEiY1ZQKgXMf1xfnl8VSNtRsYtfVWJNU3xVY23kkqv3c9814G4RR3RG6mmWzh1DU/Yhyfst4hCIuBu3n1bx+NjJbOVlDmf20XEzIa+wIXjEJWWVNMxc3SNIia1dnRATzvNmxO4wO1KAER9u965xa57/NmzpIysGwYmf/KLXeDEzjWvFNdZOHh4NA0N74cFZBfHlFYTqxq34+S3xJomp+xKrofZr9vGQWoaqrzZkMLfwg9ahB839P9Y2fxHHrGf2TAUH6HFNiKpkLh5/+AXFVC44eB1r6i8EnK2L9ZsYTsQoBYBEHVqkaSV48zMzDybmGhubfMLCRO+rr6YwZ27/RwX7hesMFpRXdPz/oPc8rjKbTnWHlfV6FNQIxOV/7Y9cT8eUsSvtfMAT9hnHcdoGfmm/p0vJbV+wEqc5hZAIuBWqehMrKi/BMRUDU2Do2KftrUPDY9MTk5Oz8zQSjuB6wACO5QAiPrOvLFTz593dHWnZufYuHujJOQucuPmqvjCdWZW1AUU359icvyquuqOXg4xKcHF229SO6Gq8X5hrRax+PSd1GMQOrfyfns8Ugj1AD7q9Vv3P1K2/EJC+2th5ZP8sqe5BVYVzU4eOL+GFZRU13W+60dMy6isqevu7YPO9p1pZeBX0SQBEHWavC1Uuqix8fGquvrgqFhjWyc+eeULXMtIOxMrioUN/YeoHL+2saq9B/7B47sZhVFl2ynRLDl0ziCp5I8HmR84JlClI3pnHgQR8rj9ltFHjINOaLl9eN3yEwXjLyW0Xoayoxa++S2xhZkNfQXNL6Cgomtu5Xk/kJiW2dDcMj4O9c6p1JLhMEBgxQRA1FeMatvuOD09XVFbd+9hyHU9Iy4xmQuc2MXqwcy12hdRfBwyynL23pZBEXcTM4Lzy+O2z3B7XFWjXWYFT3DOF25Jh60JDCv3WXf2nqTAtwMWkYeNH72u7/emrvc7Wq4fK95GYt84eefe/RWuk7WcU1RGXFVLH2/rHxJWXF45DOldt62tgAvfAQRA1HfATVzRT5iYmKypb3Tx8eeRVrzKI3COY6kZ7XNt+mUMP07LSNc/3CejILywPKasNr6qYVsE0wWX1GkSi752TyJFz+3WUXZSeAGDRfQBswhG07BDZqFv3PL5j7IFIuTsK30G5j4PSHcOO/oCJ/YqjwArqdK58z2/7IKiZ8+eQT64FTVF2AkIbCQBEPWNpEtLx0Yyxj9/Pjg8XFZVY+XmiZaUn2epF/uTmQ19ngt3mUfoDyEp4ZumugFRd7JLCZXbYP5bQnVTVEWDR24VW1D2e467crYbnkBvm3AAH/WGod/H181P8sn8hBZ+Efi2VkVnYkVd5REQU9FyuuuXU1jc3tk1PDo6MQGlUWmptcO17GICIOq76+YjddmfPWtseUpMy7B29+ZXUFnJtDey3jOzYy5jhf+Suo5V0ZExsdLzDXFNKwwvq6Nlrz2xpolQ2Xgnr1o9vugXv4wj1nE7uSseH0tvFbfPOv6AZdQxo8B3NJ0/lTP8Skz9a2Hl7/jlfuIRPcu+/BTHxd7tWNgxfwtKXNczcr7nF5uUWlxR1dLWPjI6BsngdpcFgV9L8wRA1Gn+Fm3MBQ6PjFbXN0TEJ9i4e8tq6/8lKL6SgfYX6s6GvsQjxCavLmxkreHoaRYQ6pKQ9aCgilBJu93yIaV1lunlvCE5/3NPPrpjAuNJwW4MVgRG8/Bjhg9OaLt/qIz/j5L5J/LGX0jqfCukeAottIapaHN1/TKKDyUhp6h7y9zR7UFoRHpOXkNzy+jY2MY8lXBUIAAE1ksARH29BLf196enpzu6uwnJaRbO7uKqWmzCkuc5eVau7kysqIvcvH/LqgiaOqjdeWgTHOkRl+KXWRBSXE2DUXXxVY1BxXWKsYWX/DI+dk48bL3d0sWTwtyQFG+W0QdNQ48YBb2u5/umrtcJHY/31ew+kzf8VkgJydu6ZCbBuYK92Pp5TuzvfCI80oqSajo6ZlbufgEJaZnNT9tgZtq2buxw8buEAIj6LrnRy/zMoeGR3OISC2d3jJTCNazQCiPk56nCOU6evxXURWy99EMTfTILwgvKokqqYyvq46saaarY6738GsnI/G88Uo7ZxNF4mhoGyxgGi+j95pEHzMIYzcIPmocfNg993fjBu1oun8kbnhSQXe088nm3bPZPFlIy118wAr/zifDKKWubWd0PjSipqBoeGYHwt2UaD3wMBGiJAIg6Ld2NrbuW6ZmZycmpgcGh6voGrwdBYipaF1cwqX1WEmZXWDixF9D8l3HCvwtKYlVvSrv43YxIdc0qjyynoSLuxOrGyPJ61ydVgmF57zsmMFrRXGA8vXX8Ppv4/Vaxh8zDjhvef0/T6b8yesi4OEr4FErwNLfAaS7+s5y4n9cR7DZ7y8gZY37DCcto6jnd9U3OzG5seTowNDQ6NjY5NQU54LauUcKZgcBaCICor4XaTv3OzMzMxMRkW0dnfknZ45g4E3tnXjnly2i+uQKwwnVmNvRFtMBVEdm/ZFVRytrCWgaKFg46/mEW8dmeOeWPS+sSqpuWrtSy0Z/GVDb4FdaYpZXxPc79xiP54OZLO2lEfJ91PIM14YBl5GHT4OMGvu9qOH2sYPKFuOZXoqpfC9/4Ruj6dwLyP+AkT6GEznKsPcxt4V0j97FLqukY2zr5h4QlZz4praxubm0bHBqegrrmO7WFw+/aBQRA1HfBTV79T5yenh4YHCqprIqIS3C+66dlasknr3yRC7eq4fa5QsLMjrnCJ/aXgibmprmYmb2yjauei5eJf4hVZLJzSsG93MrgkjrCpie3IVd4886r1iYWox5lf++Zcoy69WDwBCQcHVkI+/ExjBaRh0wfHzUKfEPv3tuaru/fsPlIyeI/imYfK5p+Im/0Xxm9r8Q1vhVU+AkjSppBvtLy5HM5L7GOTE3kxLIJS4qraumYWdl63r3/OJyYmlFcUdnZ3TM5Obn6xwS+AQSAAM0RAFGnuVtCaxfUPzCYX1LmFxyqddtS5Lo6q5Dk2nrm5+oNuRznr5LKHDrmAlae8u6Bev6h1sFRrhFxnnEp3ik597KK7+dVPCyqCS2ti65oQMLuNtKzj69q9C+o0Ygv+jMg66RXyrsORMqO+8tQtX0vVxjwsQyWMfstog+YRyJj3qahh0yCjxgGHjPwP37z7hu63m/qeL2FLJ7vaLu9p+H4oYrVJwomX0pqfyeogISmU6n/fC7b2XVmNvQ5Dp5rWCEOUWkBBRUZTT1NEws7z7vhBGJxeWVPXz8UV6G1tgbXAwTWTwBEff0Md8URpqenB4eGkjOzzRzdhJTUfucTucojcIELt3TV9lmBWckKMxvmEk7kd3kNDkM7nMN9SZ9ItZAkk9gsp+Q8n8zC4Jzi8PzS8ILyiKLKiOKqyNKaqLLaqPK6aGSpj66oj0GWhtjK+UtMRQN5ia6oR/YkLVHl9VHldVFlyBL5cokorQ0urtZLKPzVL+0929gDZhEHzMIPmIYzmoYx3g5lvB160DSU0SzsoDkSsHbQHMnOdtg05KjJw9eNHrxp4HNC1+tdTeePbuD/K3frazG1H/gkz3DzrXNG2Uq4zd0HiXfjxF5G813DCv0lII6SlL9hYOJ4xyc6MbmmoXFiYgKi3nZFc4UfuYsJgKjv4pu/yp9OLuo6NDzS3NqWnpPn4uMvraH7K05ozX3yc9WIvM7MhmHhwJ7j5juPFrjAI3QJK3wFJ/ILr+g1PtHf+MX+EldgV9ZFGeB58B6CroHivlGyQQmKISmKoemqkVnqMU80Y3P1ifn6xEKDxCKDxCL9hCJ9YqE2IU89JlctJkclKls+LEM+FFmkg1PFgpLEAhPFA4miD4iC/vF8vrF896L570ZyuoX+bh/IbOL1iYrlJ4q3P5M1+FJC+2tR1W+FFL/nlfoRI0qKVhM6hRI6hRJEFm5S5BopeO0MF98ZTt6zHLizHFgkLn3ds8sWIlpiyzkOnl9xwhKqWiZ2Tvcfh2flF7Z1dvUPDg6PjIyNP5t6/hwUfZWPPOwOBLYfARD17XfPtvyKp6aeDw0Pt7S1l1ZWJ6Rnegc81DW3wskoXVjHoPsSWjX7ETMHzzkU/3mc6EUBqcsi8r9IXL8mdeNXGdVfZdR+l1P/Q179T3mNvxU0kUVR68WioPmnvMYf8hq/y2v8Lqf+q6zarzLIclVa9RcpFdJy44rkjcuSNy5JKF8Sv35JXOmimOIFEQVmQZmfsGI/YUROoYSQvKpcfORo8583V6dnf/vCFRZ2zFUeQZzsdSU9IxN7Z6/7QRHxiZl5BcUVlXWNzZ3dPcOjo6DiW95Y4AKAwCYTAFHfZOA77XTPJiZa2ztyi0rCCERXn/v6lrZS6rrc4rKXuHmp6MEvlLTdtoU0Oi6IkpATU9FSuXXbyNbR3vue76PHEfGJaU9ySyqqnrZ3DMGc8p3WvOD3AIFVEwBRXzUy+AJFAjMzM6NjY+XVtdEJSS4+/nqWNoo3DUWUNTBSCn/yi10EjWddUYVyZjY0CzvmCpr/T34xLjEZnOx1EWV1Gc2bakZmJvbO7r4PQmPjM3Pz65qaB4aGYBI5xUcRNgKB3UwARH033/0N/O3T09NdPb2Zufk+Dx8bWNkJKqr+LSjxK07oCpr/IjfuHMfqktHuPL+cHJp+gQt3GcV3Bc1/jUfwN17hP/hF/xaU4BaXlVLX1cfbudzzD4mJy8jNJ6dbh770DXxe4dBAYKcQAFHfKXeS9n7H9PT0xOTk6NjYwNBQZ3dPUVlFcFQs3sVTUfcWWlIemfW+Mud1Ryr6L2h+lISctIaujpmVlZvX3aDgyPjErPzCmobG7t7evoGBgaGh4dHRsfHxicnJqSmIcaO95xuuCAjQJAEQdZq8LTvuoqanp8fGx7t7+xqan5ZV1eQVl6Zk54TGxns9CDJzclU3NhNR1mAVkrjIjdsBEs7CjvkFI8AmLMUre11CTfu6npGOudVte2d7r7veAQ8fRsbEpaRl5ObnFZeWVFRV1zc0tjxt6+zq6etHCpNDEpgd9/DDDwICm0kARH0zacO5/iXwfHp6cHj4aXtHWXVNVl5BTFJKUHiU5/1AW487t+2d9Sxt1IzM5HUMxFQ0+eSUucRk/uAXvYTi27TgO1L3OOYiN+4qj8BvOOE/+cVYhSS4xGTQkvI42etCSmriqlpy2vrX9YzUjc11zK1vWdubOrjgXT0dvH08/AN9H4UGRURHxCfEp6SnPcnLLSoprayqbWxqbe/oHxh8BvPF/30QYA0IAAFqEgBRpyZNONY6CUxOTvYPDDa3tpVX12bnFxJT00Nj4/xCwlx87lu6eOjj7dSNza/rGSneNFTQvSWnrS+teVNKXVdCTVv0hobwdTVBRVV+BZV5i5CSmrCyupiKpoSatqSajrTGTWmNmzKaN2W19OV1DGYXRd1b1/WMr+sZKesb3zAwUTMy0zK1vGlhbWTraOboinfxtPW443zPz8M/8N7DkKCIqHACMS4lLSXrSXZBUTHJ4W5ube3q6R0ZG4MSpet8DODrQAAIrJkAiPqa0cEXt4DA1NTz4ZHRnv7+jq7upqet1fUNZVU1heUVWfmFKVlPiGkZMYkpryxJKQlpmanZOdkFRUXllaVVNTUNjbUNjXWNTU1PW9s7u2aXrp7egcGh4ZGRkZHRiQlIhL4FNxdOCQSAwPoJgKivnyEcYfMIzMzMTM/MTJP+e/78+dTz55NTU5OTkxMTk88mJsafPVu4PJuYeDYxMTExOTGJhJxNkb419Rz5j3ycf/8lH3wG+W/zfhKcCQgAASBAPQIg6tRjCUcCAkAACAABILClBEDUtxQ/nBwIAAEgAASAAPUIgKhTjyUcCQgAASAABIDAlhIAUd9S/HByIAAEgAAQAALUIwCiTj2WcCQgAASAABAAAltKAER9S/HDyYEAEAACQAAIUI8AiDr1WMKRgAAQAAJAAAhsKQEQ9S3FDycHAkAACAABIEA9AiDq1GMJRwICQAAIAAEgsKUEQNS3FD+cHAgAASAABIAA9QiAqFOPJRwJCAABIAAEgMCWEgBR31L8cHIgAASAABAAAtQjAKJOPZZwJCAABIAAEAACW0oARH1L8cPJgQAQAAJAAAhQjwCIOvVYwpGAABAAAkAACGwpARD1LcUPJwcCQAAIAAEgQD0CIOrUYwlHAgJAAAgAASCwpQRA1LcUP5wcCAABIAAEgAD1CICoU48lHAkIAAEgAASAwJYSAFHfUvxwciAABIAAEAAC1CMAok49lnAkIAAEgAAQAAJbSgBEfUvxw8mBABAAAkAACFCPwP8Bd8qQ1GRGfKsAAAAASUVORK5CYII=;" vertex="1" parent="1">
          <mxGeometry x="20" y="50" width="80" height="45.51" as="geometry" />
        </mxCell>
        <mxCell id="eeU7S_-60lfEHyKscsOe-19" value="&lt;b&gt;&lt;font style=&quot;font-size: 25px;&quot;&gt;Docker Architecture&lt;/font&gt;&lt;/b&gt;" style="text;html=1;align=left;verticalAlign=middle;whiteSpace=wrap;rounded=0;fillColor=#1ba1e2;strokeColor=#006EAF;fontColor=#ffffff;" vertex="1" parent="1">
          <mxGeometry x="100" y="57.76" width="260" height="30" as="geometry" />
        </mxCell>
      </root>
    </mxGraphModel>
  </diagram>
</mxfile>
